<?xml version="1.0" encoding="UTF-8"?>
<!-- Generator: visioncortex VTracer 0.6.3 -->
<svg version="1.1" xmlns="http://www.w3.org/2000/svg" width="1280" height="1280">
<path d="M0 0 C2.14 0.25 3.46 0.46 5 2 C5.99 7.37 6.14 12.59 6.13 18.04 C6.13 19.36 6.13 19.36 6.13 20.7 C6.14 23.58 6.14 26.46 6.13 29.34 C6.13 31.34 6.13 33.35 6.14 35.35 C6.14 39.54 6.14 43.73 6.13 47.93 C6.12 53.31 6.13 58.69 6.13 64.08 C6.14 68.21 6.14 72.35 6.13 76.48 C6.13 78.47 6.13 80.45 6.14 82.44 C6.14 85.21 6.13 87.97 6.13 90.74 C6.13 91.56 6.13 92.39 6.14 93.24 C6.11 98.89 6.11 98.89 5 100 C3.33 100.04 1.67 100.04 0 100 C-1.95 96.28 -3.78 92.7 -5.06 88.69 C-6.05 85.85 -6.74 84.89 -9 83 C-10.95 82.11 -10.95 82.11 -13.12 81.5 C-17.88 80.04 -17.88 80.04 -20.17 79.18 C-30.82 75.18 -42.46 75.85 -53.68 75.87 C-55.13 75.87 -56.58 75.87 -58.03 75.87 C-61.98 75.86 -65.93 75.87 -69.88 75.87 C-74.15 75.87 -78.42 75.87 -82.7 75.87 C-91.05 75.86 -99.41 75.86 -107.76 75.86 C-114.55 75.87 -121.34 75.87 -128.13 75.87 C-129.58 75.87 -129.58 75.87 -131.06 75.87 C-133.03 75.87 -134.99 75.87 -136.96 75.86 C-155.37 75.86 -173.79 75.87 -192.2 75.87 C-208 75.88 -223.8 75.87 -239.59 75.87 C-257.95 75.86 -276.31 75.86 -294.67 75.87 C-296.63 75.87 -298.58 75.87 -300.54 75.87 C-301.98 75.87 -301.98 75.87 -303.46 75.87 C-310.24 75.87 -317.02 75.87 -323.81 75.86 C-332.07 75.86 -340.34 75.86 -348.6 75.87 C-352.81 75.87 -357.03 75.87 -361.25 75.87 C-365.1 75.86 -368.96 75.87 -372.82 75.87 C-374.22 75.87 -375.61 75.87 -377.01 75.87 C-386.55 75.84 -386.55 75.84 -396 77 C-394.59 79.82 -392.98 80.02 -390.06 81.19 C-388.45 81.84 -388.45 81.84 -386.8 82.51 C-384.03 83.6 -381.26 84.67 -378.48 85.74 C-377.7 86.04 -376.92 86.34 -376.11 86.66 C-374.57 87.25 -373.04 87.83 -371.5 88.41 C-367.14 90.08 -362.98 91.95 -358.83 94.08 C-356.37 95.31 -353.86 96.35 -351.31 97.38 C-344.13 100.32 -336.93 103.4 -330.05 107.02 C-326.02 108.94 -321.72 110.23 -317.51 111.68 C-314.2 112.93 -311.14 114.39 -308 116 C-306.01 116.7 -304.01 117.38 -302 118 C-302 118.66 -302 119.32 -302 120 C-299.52 119.5 -299.52 119.5 -297 119 C-296.67 119.66 -296.34 120.32 -296 121 C-294.03 121.96 -294.03 121.96 -291.62 122.81 C-286.84 124.65 -282.2 126.69 -277.55 128.84 C-275.4 129.82 -273.24 130.77 -271.06 131.69 C-268 133 -268 133 -266 134.06 C-263.86 135.14 -263.86 135.14 -260.81 135.88 C-257.01 137 -253.66 138.47 -250.11 140.2 C-247.75 141.24 -247.75 141.24 -244 141 C-242.98 141.98 -241.98 142.98 -241 144 C-238.37 145.18 -235.74 146.09 -233 147 C-233 147.66 -233 148.32 -233 149 C-232.32 149.1 -231.64 149.21 -230.94 149.31 C-225.16 150.67 -220.02 153.48 -214.81 156.25 C-204.86 161.39 -193.9 165.4 -183 168 C-183 168.66 -183 169.32 -183 170 C-178.39 171.91 -173.69 173.4 -168.94 174.9 C-166.02 175.99 -163.63 177.35 -161 179 C-154.82 182.01 -148.39 184.48 -142 187 C-136.42 189.2 -130.9 191.46 -125.43 193.93 C-121.55 195.64 -117.62 197.24 -113.7 198.85 C-111 200 -111 200 -108.77 201.15 C-107.03 202.14 -107.03 202.14 -105 202 C-105 202.66 -105 203.32 -105 204 C-102.69 204.33 -100.38 204.66 -98 205 C-98 205.66 -98 206.32 -98 207 C-95.69 207.33 -93.38 207.66 -91 208 C-91 208.66 -91 209.32 -91 210 C-90.24 210.06 -89.47 210.12 -88.69 210.19 C-84.47 211.12 -81.03 212.76 -77.14 214.61 C-73.73 216.12 -70.28 217.35 -66.75 218.56 C-61.78 220.29 -57.42 222.16 -53 225 C-53 225.66 -53 226.32 -53 227 C-51.93 227.04 -50.86 227.08 -49.75 227.12 C-44.6 227.75 -40.54 230.07 -35.99 232.46 C-30.55 235.26 -24.84 237.32 -19.1 239.44 C-12.21 241.98 -5.49 244.53 1 248 C2.5 248.75 4 249.5 5.5 250.25 C6.65 250.83 7.81 251.4 9 252 C8.79 254.37 8.79 254.37 8 257 C5.96 258.26 5.96 258.26 3.38 259.12 C2.47 259.44 1.57 259.76 0.64 260.09 C-0.66 260.54 -0.66 260.54 -2 261 C-3.32 261.57 -4.63 262.15 -5.94 262.75 C-9 264 -9 264 -12 264 C-12 264.66 -12 265.32 -12 266 C-14.71 267.35 -17.01 267.07 -20 267 C-20 267.66 -20 268.32 -20 269 C-21.03 269.43 -22.06 269.87 -23.12 270.31 C-25.38 271.28 -27.56 272.28 -29.75 273.38 C-37.43 277.22 -45.29 280.61 -53.25 283.81 C-54.38 284.28 -54.38 284.28 -55.54 284.76 C-60.27 286.64 -63.92 287.34 -69 287 C-69.33 287.99 -69.66 288.98 -70 290 C-71.64 290.73 -73.31 291.39 -75 292 C-75.78 292.47 -76.57 292.95 -77.38 293.44 C-81.91 296.14 -85.67 298 -91 298 C-91 298.66 -91 299.32 -91 300 C-91.76 300.31 -92.52 300.63 -93.31 300.95 C-98.1 302.94 -102.89 304.93 -107.62 307.06 C-120.37 312.75 -120.37 312.75 -125.31 313.5 C-128.73 314.14 -130.34 315.83 -133 318 C-134.32 318 -135.64 318 -137 318 C-137 318.66 -137 319.32 -137 320 C-137.87 320.27 -137.87 320.27 -138.76 320.55 C-139.54 320.8 -140.32 321.05 -141.12 321.31 C-141.89 321.56 -142.66 321.8 -143.45 322.05 C-146.42 323.16 -149.17 324.55 -152 326 C-177.22 338 -177.22 338 -185 338 C-185 338.66 -185 339.32 -185 340 C-186.98 340.33 -188.96 340.66 -191 341 C-191 341.66 -191 342.32 -191 343 C-191.68 343.23 -192.36 343.46 -193.05 343.7 C-200.88 346.44 -208.08 349.9 -215.38 353.81 C-218 355 -218 355 -222 355 C-222 355.66 -222 356.32 -222 357 C-223.59 357.63 -223.59 357.63 -225.21 358.28 C-226.6 358.83 -227.99 359.38 -229.38 359.94 C-230.07 360.22 -230.77 360.49 -231.49 360.78 C-235.29 362.28 -235.29 362.28 -239 364 C-241 364.04 -243 364.04 -245 364 C-245 364.66 -245 365.32 -245 366 C-251.5 369 -251.5 369 -256 369 C-256 369.66 -256 370.32 -256 371 C-257.56 371.68 -259.12 372.34 -260.69 373 C-261.56 373.37 -262.43 373.74 -263.32 374.12 C-266.06 375.02 -268.15 375.16 -271 375 C-271 375.99 -271 376.98 -271 378 C-272.65 378 -274.3 378 -276 378 C-276 378.66 -276 379.32 -276 380 C-278.97 380.99 -281.94 381.98 -285 383 C-285 382.34 -285 381.68 -285 381 C-285.66 381.33 -286.32 381.66 -287 382 C-287.33 382.99 -287.66 383.98 -288 385 C-290.22 386.06 -290.22 386.06 -293.06 387 C-294.05 387.34 -295.05 387.67 -296.07 388.02 C-297.03 388.34 -298 388.67 -299 389 C-300.5 389.58 -302 390.16 -303.5 390.75 C-307 392 -307 392 -310 392 C-310 392.66 -310 393.32 -310 394 C-311.9 394.79 -313.79 395.58 -315.69 396.38 C-316.74 396.82 -317.8 397.26 -318.89 397.71 C-320.77 398.49 -322.67 399.25 -324.58 399.98 C-327.23 401.1 -329.54 402.52 -332 404 C-335.94 405.82 -339.97 407.4 -344 409 C-345.01 409.4 -345.01 409.4 -346.04 409.81 C-348.17 410.66 -350.3 411.49 -352.44 412.31 C-353.45 412.71 -353.45 412.71 -354.48 413.12 C-358.11 414.5 -361.11 415.32 -365 415 C-365.33 415.99 -365.66 416.98 -366 418 C-367.32 418 -368.64 418 -370 418 C-370.33 418.99 -370.66 419.98 -371 421 C-373.06 421.69 -373.06 421.69 -375 422 C-331.24 422.2 -287.47 422.38 -243.71 422.54 C-238.54 422.55 -233.37 422.57 -228.2 422.59 C-226.66 422.6 -226.66 422.6 -225.09 422.6 C-208.43 422.66 -191.78 422.74 -175.13 422.81 C-158.03 422.89 -140.94 422.96 -123.85 423.01 C-113.31 423.05 -102.76 423.09 -92.22 423.15 C-84.99 423.18 -77.75 423.21 -70.52 423.23 C-66.35 423.24 -62.18 423.25 -58.01 423.28 C-54.18 423.31 -50.36 423.32 -46.53 423.32 C-44.51 423.32 -42.48 423.34 -40.45 423.36 C-31.1 423.34 -21.85 422.57 -14 417 C-12 416 -12 416 -9 415 C-8.69 414.36 -8.38 413.72 -8.06 413.06 C-7 411 -7 411 -5.01 410.16 C-2.8 409.17 -2.8 409.17 -2.17 406.84 C-2.03 406.02 -1.89 405.21 -1.75 404.38 C-1.6 403.56 -1.45 402.74 -1.3 401.9 C-1.15 400.96 -1.15 400.96 -1 400 C0.65 399.67 2.3 399.34 4 399 C5.92 403.05 6.25 406.3 6.26 410.76 C6.26 411.75 6.26 411.75 6.27 412.76 C6.28 414.93 6.27 417.09 6.27 419.26 C6.27 420.77 6.27 422.28 6.27 423.79 C6.27 426.95 6.27 430.11 6.26 433.27 C6.25 437.31 6.26 441.36 6.27 445.41 C6.28 448.53 6.27 451.65 6.27 454.76 C6.27 456.26 6.27 457.75 6.27 459.24 C6.28 461.33 6.27 463.41 6.26 465.5 C6.26 466.68 6.26 467.87 6.25 469.09 C6 472 6 472 4 475 C2.14 474.74 2.14 474.74 0 474 C-1.27 472.29 -1.27 472.29 -2.25 470.19 C-2.59 469.5 -2.92 468.81 -3.27 468.11 C-4 466 -4 466 -4 462 C-4.73 461.72 -5.45 461.44 -6.2 461.15 C-8.81 460.08 -11.26 458.87 -13.75 457.56 C-18.39 455.21 -23.04 453.52 -28 452 C-28.9 451.66 -29.8 451.32 -30.72 450.97 C-34.2 449.94 -36.99 449.75 -40.61 449.74 C-41.58 449.74 -41.58 449.74 -42.56 449.73 C-44.71 449.72 -46.85 449.73 -49 449.73 C-50.56 449.73 -52.12 449.72 -53.67 449.72 C-57.95 449.71 -62.23 449.71 -66.5 449.71 C-71.12 449.71 -75.73 449.7 -80.34 449.69 C-89.39 449.67 -98.43 449.67 -107.47 449.67 C-114.82 449.66 -122.17 449.66 -129.52 449.65 C-150.38 449.64 -171.24 449.63 -192.09 449.63 C-193.22 449.63 -194.34 449.63 -195.5 449.63 C-197.19 449.63 -197.19 449.63 -198.91 449.63 C-217.14 449.63 -235.37 449.61 -253.59 449.58 C-272.32 449.55 -291.05 449.54 -309.78 449.54 C-320.28 449.54 -330.79 449.54 -341.3 449.52 C-350.25 449.5 -359.21 449.49 -368.16 449.51 C-372.72 449.51 -377.29 449.51 -381.85 449.5 C-386.04 449.48 -390.22 449.48 -394.41 449.5 C-395.92 449.5 -397.42 449.5 -398.93 449.49 C-409.43 449.42 -419 450.84 -429 454 C-429.33 454.33 -429.66 454.66 -430 455 C-432 455.04 -434 455.04 -436 455 C-436.06 455.6 -436.12 456.2 -436.19 456.81 C-437.33 459.88 -439.21 460.38 -442 462 C-443.35 463.66 -444.68 465.32 -446 467 C-446.66 467 -447.32 467 -448 467 C-447.67 468.32 -447.34 469.64 -447 471 C-447.99 471.33 -448.98 471.66 -450 472 C-450.33 472.99 -450.66 473.98 -451 475 C-452.65 474.34 -454.3 473.68 -456 473 C-456.09 464.5 -456.16 456 -456.21 447.49 C-456.23 443.55 -456.26 439.6 -456.3 435.65 C-456.35 431.84 -456.37 428.03 -456.38 424.21 C-456.39 422.76 -456.4 421.31 -456.42 419.86 C-456.45 417.82 -456.46 415.78 -456.45 413.74 C-456.46 412.58 -456.47 411.42 -456.48 410.23 C-455.89 406.25 -454.55 404.08 -452 401 C-448.75 400.12 -448.75 400.12 -446 400 C-446 399.34 -446 398.68 -446 398 C-445.15 397.75 -444.31 397.49 -443.44 397.23 C-437.21 395.34 -431.06 393.38 -425 391 C-425.33 390.34 -425.66 389.68 -426 389 C-424.93 388.88 -423.86 388.75 -422.75 388.62 C-419.5 388.08 -417.76 387.61 -415 386 C-409.35 383 -409.35 383 -406 383 C-406 382.34 -406 381.68 -406 381 C-403.36 380.67 -400.72 380.34 -398 380 C-398 379.34 -398 378.68 -398 378 C-394.35 376.73 -390.81 375.67 -387 375 C-387 374.34 -387 373.68 -387 373 C-386.34 373 -385.68 373 -385 373 C-384.67 372.34 -384.34 371.68 -384 371 C-382.68 371.33 -381.36 371.66 -380 372 C-380 371.34 -380 370.68 -380 370 C-377.98 369.54 -375.96 369.09 -373.95 368.63 C-371.79 368.1 -371.79 368.1 -370 366 C-367.37 365.38 -367.37 365.38 -365 365 C-365 364.67 -365 364.34 -365 364 C-364.13 363.73 -363.27 363.46 -362.38 363.19 C-359.03 362.09 -359.03 362.09 -356.12 360.56 C-353.82 359.41 -351.65 358.45 -349.25 357.56 C-348.58 357.31 -347.9 357.06 -347.21 356.81 C-345.64 356.23 -344.06 355.66 -342.48 355.1 C-337.08 353.08 -333.19 350.97 -329 347 C-328.67 347.66 -328.34 348.32 -328 349 C-327.34 349 -326.68 349 -326 349 C-325.67 348.01 -325.34 347.02 -325 346 C-322.69 346 -320.38 346 -318 346 C-318 345.34 -318 344.68 -318 344 C-317.4 343.87 -316.79 343.73 -316.17 343.6 C-315.37 343.42 -314.57 343.24 -313.75 343.06 C-312.96 342.89 -312.17 342.71 -311.36 342.54 C-310.58 342.36 -309.8 342.18 -309 342 C-308.26 341.87 -307.53 341.75 -306.77 341.62 C-305.89 341.31 -305.89 341.31 -305 341 C-304.67 340.01 -304.34 339.02 -304 338 C-302.35 338 -300.7 338 -299 338 C-299 337.34 -299 336.68 -299 336 C-297.02 335.27 -295.02 334.61 -293 334 C-292.34 334.33 -291.68 334.66 -291 335 C-291 334.34 -291 333.68 -291 333 C-289.02 332.34 -287.04 331.68 -285 331 C-285 330.67 -285 330.34 -285 330 C-283.39 329.57 -283.39 329.57 -281.75 329.12 C-277.69 327.91 -274.99 326.99 -272 324 C-270.68 324 -269.36 324 -268 324 C-267.67 323.01 -267.34 322.02 -267 321 C-264.33 321 -261.67 321 -259 321 C-259 320.34 -259 319.68 -259 319 C-258.34 319 -257.68 319 -257 319 C-256.67 318.34 -256.34 317.68 -256 317 C-256 317.66 -256 318.32 -256 319 C-253.53 318.66 -253.53 318.66 -251 318 C-250.67 317.34 -250.34 316.68 -250 316 C-247.67 315.33 -245.33 314.67 -243 314 C-242.67 313.34 -242.34 312.68 -242 312 C-239.89 311.29 -239.89 311.29 -237.25 310.62 C-232.97 309.44 -230.4 307.89 -227 305 C-226.01 305.33 -225.02 305.66 -224 306 C-224 305.34 -224 304.68 -224 304 C-223.05 303.88 -222.1 303.75 -221.12 303.62 C-217.91 303.28 -217.91 303.28 -216 301 C-213.37 300.88 -213.37 300.88 -211 301 C-211 300.34 -211 299.68 -211 299 C-209.02 298.67 -207.04 298.34 -205 298 C-205 297.34 -205 296.68 -205 296 C-202.69 295.67 -200.38 295.34 -198 295 C-197.67 294.01 -197.34 293.02 -197 292 C-195.78 291.9 -194.57 291.79 -193.31 291.69 C-189.55 291.23 -187.18 290.12 -184 288 C-182.67 287.67 -181.33 287.33 -180 287 C-179.67 286.34 -179.34 285.68 -179 285 C-178.34 285 -177.68 285 -177 285 C-177 284.67 -177 284.34 -177 284 C-176.03 283.88 -175.06 283.75 -174.06 283.62 C-173.05 283.42 -172.04 283.21 -171 283 C-170.67 282.34 -170.34 281.68 -170 281 C-167.82 280.15 -167.82 280.15 -165.12 279.38 C-163.8 278.98 -163.8 278.98 -162.45 278.59 C-160 278 -160 278 -157 278 C-157 277.34 -157 276.68 -157 276 C-155.35 275.67 -153.7 275.34 -152 275 C-152 274.34 -152 273.68 -152 273 C-151.03 272.88 -150.06 272.75 -149.06 272.62 C-148.05 272.42 -147.04 272.21 -146 272 C-145.67 271.34 -145.34 270.68 -145 270 C-142.86 269.15 -142.86 269.15 -140.19 268.38 C-139.31 268.11 -138.44 267.85 -137.54 267.59 C-135 267 -135 267 -131 267 C-130.34 265.68 -129.68 264.36 -129 263 C-128.34 263.33 -127.68 263.66 -127 264 C-126.24 263.53 -125.47 263.05 -124.69 262.56 C-121.78 260.87 -120.29 260.72 -117 261 C-117 260.34 -117 259.68 -117 259 C-110.5 256 -110.5 256 -106 256 C-105.67 255.34 -105.34 254.68 -105 254 C-104.34 254 -103.68 254 -103 254 C-101.51 253.01 -101.51 253.01 -100 252 C-98.68 252 -97.36 252 -96 252 C-96 251.34 -96 250.68 -96 250 C-95.24 249.9 -94.47 249.79 -93.69 249.69 C-90.76 248.94 -90.02 248.11 -88 246 C-87.01 246 -86.02 246 -85 246 C-81.83 244.83 -81.83 244.83 -79 243 C-78.04 240.92 -78.04 240.92 -78 239 C-79.32 239 -80.64 239 -82 239 C-82 238.01 -82 237.02 -82 236 C-83.36 236.15 -83.36 236.15 -84.75 236.31 C-90.63 236.31 -95.74 233.35 -101 231 C-103.12 230.12 -105.25 229.24 -107.38 228.38 C-111.34 226.73 -115.2 225 -119 223 C-119 222.34 -119 221.68 -119 221 C-119.76 220.92 -120.53 220.84 -121.31 220.75 C-126.38 219.72 -131.28 218.13 -136 216 C-136.33 215.34 -136.66 214.68 -137 214 C-138.89 213.32 -138.89 213.32 -141.06 212.88 C-142.16 212.62 -142.16 212.62 -143.29 212.37 C-143.85 212.25 -144.42 212.12 -145 212 C-145 211.34 -145 210.68 -145 210 C-146.13 209.92 -147.27 209.84 -148.44 209.75 C-152.58 209.23 -155.88 207.9 -159.64 206.11 C-162.12 204.94 -164.63 203.93 -167.19 202.94 C-170.9 201.47 -174.44 199.82 -178 198 C-180.32 196.97 -182.66 195.98 -185 195 C-185 194.34 -185 193.68 -185 193 C-185.82 193.08 -186.65 193.16 -187.5 193.25 C-192.01 192.93 -195.12 191.21 -199 189 C-199 188.34 -199 187.68 -199 187 C-199.78 186.92 -200.57 186.84 -201.38 186.75 C-205.19 185.96 -208.42 184.68 -212 183.18 C-216.24 181.51 -220.57 180.13 -224.91 178.75 C-227.97 177.76 -230.3 176.8 -233 175 C-233 174.34 -233 173.68 -233 173 C-233.78 173.04 -234.57 173.08 -235.38 173.12 C-238 173 -238 173 -240 171 C-241.75 170.33 -243.53 169.71 -245.31 169.12 C-249.64 167.62 -252.44 165.89 -256 163 C-257.94 162.45 -259.88 161.91 -261.85 161.48 C-270.62 159.52 -278.81 155.6 -287 152 C-287 151.34 -287 150.68 -287 150 C-287.76 150.04 -288.53 150.08 -289.31 150.12 C-292 150 -292 150 -295 148 C-298.32 146.2 -301.78 144.89 -305.31 143.56 C-309.93 141.81 -314.49 139.99 -319 138 C-319 137.34 -319 136.68 -319 136 C-319.7 135.88 -320.39 135.76 -321.11 135.64 C-324.27 134.94 -327.16 133.94 -330.18 132.82 C-331.95 132.17 -331.95 132.17 -333.74 131.5 C-334.96 131.05 -336.18 130.59 -337.44 130.12 C-338.65 129.68 -339.87 129.23 -341.12 128.77 C-355.62 123.38 -355.62 123.38 -359 120 C-360.97 119.33 -360.97 119.33 -363.12 118.88 C-364.4 118.59 -365.68 118.3 -367 118 C-367 117.34 -367 116.68 -367 116 C-367.89 115.9 -368.77 115.79 -369.69 115.69 C-373.12 114.98 -375.06 113.84 -378 112 C-379.98 111.29 -381.98 110.61 -384 110 C-384 109.34 -384 108.68 -384 108 C-385.18 108.12 -385.18 108.12 -386.38 108.23 C-391.34 107.91 -395.32 106.16 -399.88 104.25 C-400.73 103.9 -401.59 103.55 -402.48 103.2 C-406.54 101.53 -410.53 99.78 -414.45 97.8 C-417.84 95.97 -417.84 95.97 -421 95 C-421 94.34 -421 93.68 -421 93 C-421.78 92.92 -422.57 92.84 -423.38 92.75 C-428.12 91.77 -432.74 90.33 -437 88 C-437.33 87.01 -437.66 86.02 -438 85 C-439.65 85 -441.3 85 -443 85 C-443.33 84.01 -443.66 83.02 -444 82 C-446.97 81.67 -449.94 81.34 -453 81 C-453.33 80.01 -453.66 79.02 -454 78 C-454.66 77.67 -455.32 77.34 -456 77 C-456.33 52.25 -456.66 27.5 -457 2 C-455.02 1.67 -453.04 1.34 -451 1 C-447 5.62 -447 5.62 -447 9 C-446.34 9.33 -445.68 9.66 -445 10 C-444.4 10.93 -443.8 11.86 -443.19 12.81 C-441.05 15.93 -438.99 17.74 -436 20 C-435.67 20.66 -435.34 21.32 -435 22 C-431.97 22.66 -431.97 22.66 -429 23 C-429 23.66 -429 24.32 -429 25 C-427.87 24.96 -426.73 24.92 -425.56 24.88 C-422.5 24.86 -419.89 25.2 -416.94 25.99 C-411.43 27.27 -406.1 27.27 -400.47 27.23 C-399.4 27.23 -398.33 27.23 -397.23 27.23 C-394.99 27.23 -392.74 27.22 -390.5 27.21 C-387.05 27.19 -383.6 27.19 -380.15 27.19 C-377.97 27.18 -375.78 27.17 -373.6 27.17 C-372.05 27.17 -372.05 27.17 -370.47 27.16 C-369.51 27.16 -368.56 27.15 -367.58 27.15 C-366.32 27.14 -366.32 27.14 -365.04 27.13 C-362.93 27.13 -362.93 27.13 -361 26 C-361 26.66 -361 27.32 -361 28 C-360.37 28 -359.73 28 -359.08 27.99 C-321.55 27.87 -284.03 27.74 -246.5 27.62 C-242 27.6 -237.49 27.59 -232.99 27.57 C-232.09 27.57 -231.2 27.57 -230.27 27.56 C-215.75 27.52 -201.22 27.47 -186.69 27.42 C-171.79 27.37 -156.89 27.32 -141.99 27.27 C-132.79 27.24 -123.59 27.21 -114.4 27.18 C-108.09 27.16 -101.79 27.13 -95.49 27.11 C-91.85 27.1 -88.21 27.09 -84.57 27.08 C-80.63 27.06 -76.69 27.05 -72.75 27.04 C-71.01 27.03 -71.01 27.03 -69.24 27.03 C-68.19 27.02 -67.14 27.02 -66.05 27.02 C-65.14 27.01 -64.23 27.01 -63.3 27.01 C-60.09 27 -56.89 27.02 -53.69 27.07 C-51.98 27.09 -50.27 27.11 -48.56 27.12 C-47.7 27.14 -46.84 27.16 -45.96 27.18 C-45.13 27.18 -44.3 27.19 -43.44 27.2 C-42.69 27.21 -41.93 27.22 -41.15 27.23 C-38.71 26.97 -37.15 26.14 -35 25 C-31.96 24.64 -28.94 24.5 -25.88 24.34 C-23.03 24 -21.43 23.44 -19 22 C-18.37 21.66 -17.75 21.31 -17.11 20.96 C-9.95 16.69 -4.25 11.85 -1 4 C-1.66 3.67 -2.32 3.34 -3 3 C-1.75 1.44 -1.75 1.44 0 0 Z M-433 86 C-433.33 86.66 -433.66 87.32 -434 88 C-433.34 88 -432.68 88 -432 88 C-432.33 87.34 -432.66 86.68 -433 86 Z M3 90 C4 92 4 92 4 92 Z M3 93 C4 95 4 95 4 95 Z M4 96 C5 98 5 98 5 98 Z M2 97 C2 97.66 2 98.32 2 99 C2.66 98.67 3.32 98.34 4 98 C3.34 97.67 2.68 97.34 2 97 Z M-133 313 C-132 315 -132 315 -132 315 Z M-135 314 C-135 314.66 -135 315.32 -135 316 C-134.34 315.67 -133.68 315.34 -133 315 C-133.66 314.67 -134.32 314.34 -135 314 Z M-207 344 C-206.34 344.66 -205.68 345.32 -205 346 C-205 345.34 -205 344.68 -205 344 C-205.66 344 -206.32 344 -207 344 Z M-211 347 C-210.67 347.66 -210.34 348.32 -210 349 C-209.67 348.34 -209.34 347.68 -209 347 C-209.66 347 -210.32 347 -211 347 Z M-378 422 C-378 422.66 -378 423.32 -378 424 C-377.34 424 -376.68 424 -376 424 C-376 423.34 -376 422.68 -376 422 C-376.66 422 -377.32 422 -378 422 Z M-447 461 C-446 463 -446 463 -446 463 Z M3 469 C3.66 469.66 4.32 470.32 5 471 C5 470.34 5 469.68 5 469 C4.34 469 3.68 469 3 469 Z " fill="#F9F9F9" transform="translate(461,634)"/>
<path d="M0 0 C2.31 0.33 4.62 0.66 7 1 C7.33 161.38 7.66 321.76 8 487 C8.99 487.33 9.98 487.66 11 488 C10.67 489.65 10.34 491.3 10 493 C10.66 493 11.32 493 12 493 C16 499.5 16 499.5 16 504 C16.99 504.33 17.98 504.66 19 505 C19.56 506.11 20.11 507.23 20.69 508.38 C22.37 511.6 23.76 512.63 27.19 513.81 C29.07 514.4 29.07 514.4 31 515 C32 517 32 517 32 523 C-1.33 523 -34.66 523 -69 523 C-70 517 -70 517 -68 514 C-66.33 514 -64.67 514 -63 514 C-63 513.34 -63 512.68 -63 512 C-61.29 510.4 -59.47 508.99 -57.63 507.54 C-55.73 505.99 -55.73 505.99 -55 503 C-54.34 502.34 -53.68 501.68 -53 501 C-52.24 499.15 -51.54 497.27 -50.88 495.38 C-50.52 494.37 -50.17 493.37 -49.8 492.34 C-49.41 491.18 -49.41 491.18 -49 490 C-48.67 490 -48.34 490 -48 490 C-47.95 489.29 -47.9 488.58 -47.85 487.85 C-47.78 486.93 -47.7 486.01 -47.62 485.06 C-47.56 484.15 -47.49 483.23 -47.41 482.29 C-47.28 481.53 -47.14 480.78 -47 480 C-46.34 479.67 -45.68 479.34 -45 479 C-44.95 426.2 -44.92 373.4 -44.9 320.6 C-44.9 314.37 -44.89 308.14 -44.89 301.91 C-44.89 300.67 -44.89 299.43 -44.89 298.15 C-44.88 278.06 -44.86 257.96 -44.85 237.86 C-44.83 217.25 -44.82 196.64 -44.81 176.03 C-44.81 163.3 -44.8 150.57 -44.78 137.85 C-44.77 129.13 -44.77 120.41 -44.77 111.69 C-44.77 106.66 -44.77 101.62 -44.76 96.59 C-44.75 91.98 -44.75 87.38 -44.76 82.77 C-44.76 81.1 -44.76 79.43 -44.75 77.76 C-44.74 75.5 -44.75 73.24 -44.75 70.97 C-44.75 69.08 -44.75 69.08 -44.75 67.16 C-44.99 64.13 -45.48 62.56 -47 60 C-47.45 57.71 -47.45 57.71 -47.69 55.38 C-47.77 54.6 -47.86 53.82 -47.95 53.02 C-48 51 -48 51 -47 49 C-47.66 49 -48.32 49 -49 49 C-49.11 48.36 -49.22 47.72 -49.33 47.07 C-49.57 45.83 -49.57 45.83 -49.81 44.56 C-49.96 43.74 -50.11 42.92 -50.27 42.07 C-50.51 41.38 -50.75 40.7 -51 40 C-52.49 39.5 -52.49 39.5 -54 39 C-54 38.34 -54 37.68 -54 37 C-54.8 36.86 -55.61 36.71 -56.44 36.56 C-59 36 -59 36 -60 35 C-62.54 34.51 -65.09 34.1 -67.65 33.7 C-70 33 -70 33 -72 30 C-72.44 26.5 -72.44 26.5 -72 23 C-67.95 18.81 -61.5 19.28 -56 19 C-56 18.34 -56 17.68 -56 17 C-53.03 16.67 -50.06 16.34 -47 16 C-47 15.34 -47 14.68 -47 14 C-45.35 13.34 -43.7 12.68 -42 12 C-42 12.66 -42 13.32 -42 14 C-41.65 13.5 -41.3 13.01 -40.94 12.5 C-38.06 10.27 -35.53 10.8 -32 11 C-32 10.34 -32 9.68 -32 9 C-31.25 8.89 -30.5 8.78 -29.73 8.67 C-28.75 8.51 -27.76 8.35 -26.75 8.19 C-25.78 8.04 -24.8 7.89 -23.8 7.73 C-20.88 6.97 -19.26 5.96 -17 4 C-17 4.66 -17 5.32 -17 6 C-16.34 5.67 -15.68 5.34 -15 5 C-12.67 4.96 -10.33 4.96 -8 5 C-8 4.34 -8 3.68 -8 3 C-5.36 2.34 -2.72 1.68 0 1 C0 0.67 0 0.34 0 0 Z " fill="#F9F9F9" transform="translate(811,102)"/>
<path d="M0 0 C0.99 0.99 0.99 0.99 2 2 C4.29 1.8 4.29 1.8 6.97 1.14 C15.45 -0.43 23.84 -0.35 32.44 -0.31 C33.28 -0.31 34.12 -0.31 34.98 -0.31 C68.7 -0.18 68.7 -0.18 84 8 C86.59 9.05 89.19 10.03 91.81 11.01 C94 12 94 12 96.1 13.62 C98.01 15.29 98.01 15.29 101 15 C101 15.66 101 16.32 101 17 C101.66 17 102.32 17 103 17 C103 17.66 103 18.32 103 19 C104.32 19.33 105.64 19.66 107 20 C107 20.66 107 21.32 107 22 C107.66 22.19 108.32 22.37 109 22.56 C113.35 24.65 116.5 27.71 120 31 C120.83 31.77 121.66 32.53 122.52 33.32 C123.34 34.1 124.16 34.88 125 35.69 C125.76 36.41 126.53 37.14 127.31 37.89 C129 40 129 40 129 44 C129.99 44.33 130.98 44.66 132 45 C133.82 47.36 133.82 47.36 135.69 50.31 C136.62 51.76 136.62 51.76 137.57 53.24 C139 56 139 56 139 60 C139.66 60 140.32 60 141 60 C141.33 61.98 141.66 63.96 142 66 C142.99 66.33 143.98 66.66 145 67 C146.15 69.47 147.07 71.81 147.94 74.38 C148.2 75.13 148.45 75.89 148.72 76.67 C155.51 97.26 156.23 117.52 156 139 C152.26 140.25 148.81 140.12 144.91 140.1 C144.08 140.1 143.25 140.1 142.39 140.1 C139.59 140.09 136.78 140.08 133.98 140.07 C131.98 140.06 129.97 140.06 127.96 140.05 C123.64 140.04 119.32 140.03 114.99 140.01 C108.16 139.99 101.33 139.98 94.5 139.97 C75.07 139.93 55.65 139.89 36.22 139.83 C25.49 139.79 14.77 139.77 4.04 139.76 C-1.64 139.75 -7.32 139.74 -12.99 139.71 C-18.33 139.69 -23.67 139.68 -29.01 139.68 C-30.97 139.68 -32.94 139.67 -34.9 139.66 C-37.57 139.64 -40.24 139.64 -42.91 139.65 C-43.7 139.64 -44.48 139.63 -45.29 139.62 C-49.39 139.63 -49.39 139.63 -53 141.38 C-54.44 143.72 -54.09 145.17 -53.67 147.85 C-53.53 148.78 -53.39 149.72 -53.25 150.68 C-53 152.14 -53 152.14 -52.75 153.62 C-52.6 154.6 -52.45 155.58 -52.3 156.59 C-51.95 161.15 -51.95 161.15 -50 165 C-49.73 166.5 -49.48 168 -49.25 169.5 C-48.35 174.32 -46.65 177.88 -44.02 181.99 C-43 184 -43 184 -43 188 C-42.34 188 -41.68 188 -41 188 C-40.67 189.98 -40.34 191.96 -40 194 C-39.34 194 -38.68 194 -38 194 C-37.34 195.65 -36.68 197.3 -36 199 C-35.34 199 -34.68 199 -34 199 C-33.5 201.48 -33.5 201.48 -33 204 C-32.01 204.33 -31.02 204.66 -30 205 C-27.9 207.69 -26.04 210.5 -24.13 213.34 C-21.94 216.07 -20.03 217.32 -17 219 C-16.32 220.33 -15.65 221.66 -15 223 C-12.7 224.41 -10.57 225.14 -8 226 C-6.66 227.33 -5.33 228.66 -4 230 C1.97 234.22 8.03 236.93 15 239 C16.67 239.66 18.34 240.33 20 241 C25.38 243.13 30.6 243.63 36.31 244.12 C37.66 244.25 37.66 244.25 39.04 244.39 C49.59 245.41 49.59 245.41 60 244 C63.2 243.78 66.39 243.61 69.6 243.48 C73.22 243.29 74.91 243.06 78 241 C80.33 240.65 82.67 240.32 85 240 C87.8 239.17 87.8 239.17 90 238 C90.33 237.34 90.66 236.68 91 236 C92.66 235.65 94.33 235.32 96 235 C96.99 234.34 97.98 233.68 99 233 C99.99 233 100.98 233 102 233 C102.33 232.34 102.66 231.68 103 231 C103.99 231 104.98 231 106 231 C106.99 230.34 107.98 229.68 109 229 C112 227 112 227 115 227 C115 226.34 115 225.68 115 225 C116.36 224.13 117.71 223.26 119.08 222.41 C123.14 219.43 126.51 215.61 130 212 C131 211 132 210 133 209 C132.67 208.34 132.34 207.68 132 207 C132.66 207 133.32 207 134 207 C134.33 206.34 134.66 205.68 135 205 C135.52 204.17 136.03 203.35 136.56 202.5 C138.17 200.19 138.17 200.19 138 198 C139.5 196.38 139.5 196.38 141 195 C140.67 194.34 140.34 193.68 140 193 C140.66 193 141.32 193 142 193 C142.33 192.01 142.66 191.02 143 190 C143.33 189.01 143.66 188.02 144 187 C146.02 187.6 148.02 188.27 150 189 C153.86 196.72 152.16 209.51 152.25 218 C152.27 219.09 152.29 220.17 152.31 221.29 C152.34 227.04 152.2 231.15 149 236 C147.68 235.67 146.36 235.34 145 235 C144.67 235.99 144.34 236.98 144 238 C142.67 238.35 141.34 238.69 140 239 C139.57 239.43 139.13 239.87 138.69 240.31 C136.12 242.88 133.21 244.31 130 246 C129.34 246 128.68 246 128 246 C128 245.34 128 244.68 128 244 C127.34 244.33 126.68 244.66 126 245 C126 245.99 126 246.98 126 248 C122.63 249.5 120.8 250 117 250 C116.67 250.99 116.34 251.98 116 253 C114.02 253.73 112.01 254.38 110 255 C108.24 255.8 106.49 256.61 104.75 257.44 C97.36 260.84 89.88 262.95 81.91 264.47 C79.7 264.98 79.7 264.98 77 267 C66.27 268.52 55.19 268.1 44.38 268.12 C42.45 268.13 42.45 268.13 40.48 268.14 C33.93 268.13 27.39 267.99 20.85 267.62 C19.06 267.51 19.06 267.51 17.23 267.41 C14.13 267.02 11.85 266.23 9 265 C7.78 264.84 6.57 264.67 5.31 264.5 C2 264 2 264 0 262 C-2.66 261.32 -2.66 261.32 -5.62 260.88 C-6.63 260.71 -7.63 260.54 -8.66 260.37 C-9.43 260.25 -10.21 260.12 -11 260 C-11 259.34 -11 258.68 -11 258 C-12.26 257.9 -13.52 257.79 -14.81 257.69 C-18.34 257.25 -19.63 256.69 -22 254 C-25.1 252.8 -25.1 252.8 -28 252 C-28 251.34 -28 250.68 -28 250 C-28.87 250.08 -29.73 250.16 -30.62 250.25 C-34.86 249.94 -36.61 248.49 -40 246 C-42.31 244.62 -44.65 243.31 -47 242 C-47 241.01 -47 240.02 -47 239 C-47.78 238.69 -48.57 238.38 -49.38 238.06 C-52 237 -52 237 -54 236 C-54 235.34 -54 234.68 -54 234 C-54.93 233.63 -54.93 233.63 -55.88 233.25 C-58.39 231.77 -58.76 230.56 -60 228 C-60.99 227.67 -61.98 227.34 -63 227 C-63 226.34 -63 225.68 -63 225 C-63.66 225 -64.32 225 -65 225 C-68.33 222.09 -70.31 218.48 -72.38 214.62 C-74.3 211.11 -76.46 208.1 -79 205 C-79 204.34 -79 203.68 -79 203 C-79.66 202.67 -80.32 202.34 -81 202 C-83 196.78 -83 196.78 -83 194 C-83.66 194 -84.32 194 -85 194 C-85.12 193.03 -85.25 192.06 -85.38 191.06 C-85.68 189.55 -85.68 189.55 -86 188 C-86.66 187.67 -87.32 187.34 -88 187 C-100.32 155.39 -97.07 118.59 -91 86 C-90.34 86 -89.68 86 -89 86 C-88.67 83.69 -88.34 81.38 -88 79 C-87.34 79 -86.68 79 -86 79 C-86.33 78.01 -86.66 77.02 -87 76 C-86.34 76 -85.68 76 -85 76 C-83.51 70.56 -83.51 70.56 -82 65 C-81.34 65 -80.68 65 -80 65 C-80.1 64.26 -80.21 63.51 -80.31 62.75 C-80 60 -80 60 -77.56 58 C-76.72 57.34 -75.87 56.68 -75 56 C-74.12 53.37 -74.12 53.37 -74 51 C-73.34 51 -72.68 51 -72 51 C-71.93 50.28 -71.87 49.57 -71.8 48.83 C-70.75 45.11 -68.96 43.46 -66.23 40.73 C-65.75 40.26 -65.28 39.78 -64.78 39.28 C-63.78 38.28 -62.76 37.28 -61.74 36.28 C-60.19 34.75 -58.66 33.21 -57.12 31.66 C-56.14 30.69 -55.15 29.71 -54.17 28.73 C-53.27 27.85 -52.38 26.97 -51.46 26.05 C-49.1 24.09 -47.94 23.48 -45 23 C-44.55 22.55 -44.09 22.09 -43.62 21.62 C-42 20 -42 20 -38.94 18.5 C-35.77 17.18 -35.77 17.18 -34 14 C-30.4 12.56 -26.81 11.67 -23 11 C-23 10.34 -23 9.68 -23 9 C-21.55 8.81 -21.55 8.81 -20.06 8.62 C-18.55 8.32 -18.55 8.32 -17 8 C-16.67 7.34 -16.34 6.68 -16 6 C-15.01 6 -14.02 6 -13 6 C-11.67 5.57 -10.36 5.08 -9.06 4.56 C-6.96 3.72 -5.02 3 -2.81 2.53 C-1.91 2.27 -1.91 2.27 -1 2 C-0.67 1.34 -0.34 0.68 0 0 Z M27.38 19.94 C22.35 21.52 17.24 21.68 12 22 C12 22.66 12 23.32 12 24 C7.54 24.5 7.54 24.5 3 25 C3 25.66 3 26.32 3 27 C2.03 27.12 1.06 27.25 0.06 27.38 C-0.95 27.58 -1.96 27.79 -3 28 C-3.33 28.66 -3.66 29.32 -4 30 C-4.74 30.29 -5.49 30.58 -6.25 30.88 C-9.36 32.15 -11.39 33.9 -14 36 C-14.95 36.41 -15.9 36.82 -16.88 37.25 C-20.59 39.33 -22.64 41.82 -25.33 45.07 C-27.32 47.37 -29.59 49.14 -32 51 C-33.94 53.74 -33.94 53.74 -34.88 55.88 C-36 58 -36 58 -37.94 60.38 C-40.12 62.97 -40.12 62.97 -41.56 66.19 C-43 69 -43 69 -46 71 C-46.25 73.58 -46.25 73.58 -46 76 C-46.66 76 -47.32 76 -48 76 C-54.34 95.98 -54.34 95.98 -54 116 C-52.51 115.5 -52.51 115.5 -51 115 C-50.01 115.33 -49.02 115.66 -48 116 C-45.84 116.1 -43.67 116.14 -41.51 116.15 C-40.85 116.16 -40.19 116.16 -39.5 116.17 C-37.28 116.18 -35.06 116.19 -32.84 116.19 C-31.24 116.2 -29.65 116.21 -28.06 116.22 C-22.83 116.24 -17.6 116.26 -12.38 116.27 C-10.58 116.28 -8.78 116.28 -6.98 116.29 C0.5 116.31 7.98 116.33 15.46 116.34 C26.19 116.36 36.91 116.39 47.64 116.45 C55.18 116.49 62.72 116.51 70.26 116.51 C74.76 116.51 79.27 116.53 83.77 116.56 C88.01 116.59 92.24 116.6 96.48 116.58 C98.04 116.58 99.59 116.59 101.15 116.61 C103.27 116.63 105.39 116.62 107.51 116.61 C108.7 116.61 109.89 116.61 111.11 116.62 C114.18 116.28 114.18 116.28 115.88 113.66 C118.65 107.07 116.34 100.26 114.69 93.62 C114.47 92.73 114.26 91.84 114.04 90.91 C110.74 77.36 105.87 65.45 97.52 54.16 C96.11 52.16 95.02 50.21 94 48 C93.34 48 92.68 48 92 48 C91.67 47.34 91.34 46.68 91 46 C89.34 44.66 87.67 43.32 86 42 C85.28 41.26 84.56 40.51 83.81 39.75 C82.18 37.77 82.18 37.77 80 38 C79.67 37.34 79.34 36.68 79 36 C78.34 36 77.68 36 77 36 C77 35.34 77 34.68 77 34 C74.28 32.48 71.55 30.99 68.81 29.5 C68.04 29.07 67.27 28.64 66.48 28.2 C61.08 25.21 61.08 25.21 55 25 C55 24.01 55 23.02 55 22 C53.7 21.93 53.7 21.93 52.37 21.85 C50.64 21.74 50.64 21.74 48.88 21.62 C47.74 21.56 46.6 21.49 45.43 21.41 C42.04 21 39.21 20.14 36 19 C32.73 18.73 30.47 18.83 27.38 19.94 Z M127 41 C128 43 128 43 128 43 Z M-27 42 C-26 44 -26 44 -26 44 Z M133 50 C134 52 134 52 134 52 Z M-38 57 C-37 59 -37 59 -37 59 Z M-55 139 C-54 141 -54 141 -54 141 Z M-37 245 C-36 247 -36 247 -36 247 Z " fill="#F8F8F8" transform="translate(560,364)"/>
<path d="M0 0 C2.5 0.58 2.5 0.58 4.5 -0.66 C4.5 -0 4.5 0.66 4.5 1.34 C6.39 1.25 6.39 1.25 8.32 1.15 C14.03 1.13 19.08 2.69 24.5 4.34 C25.84 4.67 27.17 5.01 28.5 5.34 C37.1 7.73 44.6 11.31 52.35 15.63 C55.4 17.4 55.4 17.4 58.5 18.34 C58.5 19 58.5 19.66 58.5 20.34 C59.06 20.43 59.61 20.53 60.18 20.62 C63.13 21.53 65.23 23 67.75 24.78 C68.65 25.39 69.54 26.01 70.46 26.65 C71.13 27.21 71.81 27.76 72.5 28.34 C72.5 29 72.5 29.66 72.5 30.34 C73.04 30.55 73.57 30.75 74.11 30.97 C77.5 32.91 80.01 35.52 82.75 38.28 C83.31 38.82 83.86 39.35 84.43 39.91 C85.85 41.33 87.19 42.83 88.5 44.34 C88.5 45.33 88.5 46.32 88.5 47.34 C89.49 47.67 90.48 48 91.5 48.34 C94.27 51.31 94.5 52.08 94.5 56.34 C95.49 56.67 96.48 57 97.5 57.34 C97.88 58.66 98.21 60 98.5 61.34 C99.16 61.67 99.82 62 100.5 62.34 C106.53 70.25 110.38 79.7 112.5 89.34 C112.85 90.31 113.21 91.28 113.57 92.28 C114.59 95.63 114.9 98.76 115.22 102.24 C115.44 104.48 115.44 104.48 116.57 106.96 C117.82 110.14 117.57 112.96 117.5 116.34 C117.83 117 118.16 117.66 118.5 118.34 C120.15 128.01 121.17 139.19 117.5 148.34 C117.34 151.59 117.34 151.59 117.5 154.96 C117.73 161.01 117.73 161.01 115.5 164.34 C114.99 166.64 114.54 168.96 114.13 171.28 C112.86 178.08 111.53 185.08 108.5 191.34 C107.51 191.67 106.52 192 105.5 192.34 C105.17 194.32 104.84 196.3 104.5 198.34 C103.84 198.34 103.18 198.34 102.5 198.34 C102.32 199.48 102.32 199.48 102.13 200.65 C101.5 203.34 101.5 203.34 99.5 206.34 C98.84 206.34 98.18 206.34 97.5 206.34 C97.41 206.92 97.31 207.5 97.21 208.1 C96.35 210.82 95.09 212.15 93.13 214.21 C90.18 217.45 88.21 220.32 86.5 224.34 C85.84 224.34 85.18 224.34 84.5 224.34 C84.24 224.92 83.98 225.51 83.71 226.11 C81.25 230.66 77.53 234.69 72.57 236.28 C71.55 236.31 71.55 236.31 70.5 236.34 C70.17 237.33 69.84 238.32 69.5 239.34 C64.25 243.34 64.25 243.34 60.5 243.34 C60.17 244.33 59.84 245.32 59.5 246.34 C57.19 247.9 57.19 247.9 54.5 249.34 C53.82 249.73 53.14 250.12 52.44 250.53 C50.5 251.34 50.5 251.34 46.5 251.34 C46.17 252.33 45.84 253.32 45.5 254.34 C43.85 254.34 42.2 254.34 40.5 254.34 C40.17 255.33 39.84 256.32 39.5 257.34 C32.11 261.66 22.76 263.32 14.5 265.34 C13.86 265.51 13.22 265.68 12.55 265.86 C6.45 267.38 0.64 267.65 -5.64 267.64 C-6.68 267.64 -7.72 267.65 -8.8 267.65 C-11 267.66 -13.2 267.66 -15.4 267.66 C-18.72 267.65 -22.05 267.68 -25.38 267.7 C-36.17 267.73 -46.12 267.6 -56.5 264.34 C-57.77 264.01 -59.05 263.68 -60.36 263.35 C-65.9 261.72 -70.38 260.14 -74.88 256.5 C-77.78 254.41 -81.13 253.47 -84.5 252.34 C-86.17 251.68 -87.83 251.02 -89.5 250.34 C-89.5 249.35 -89.5 248.36 -89.5 247.34 C-90.23 247.07 -90.96 246.8 -91.71 246.52 C-97.78 243.95 -103.62 239.74 -108.5 235.34 C-108.5 234.68 -108.5 234.02 -108.5 233.34 C-109.16 233.34 -109.82 233.34 -110.5 233.34 C-112.5 230.34 -112.5 230.34 -113.5 228.34 C-114.16 228.01 -114.82 227.68 -115.5 227.34 C-117.07 225.06 -118.51 222.72 -119.96 220.37 C-121.41 218.05 -121.41 218.05 -124.5 217.34 C-125.88 215.37 -127.21 213.37 -128.5 211.34 C-129.16 210.68 -129.82 210.02 -130.5 209.34 C-130.5 208.35 -130.5 207.36 -130.5 206.34 C-131.16 206.01 -131.82 205.68 -132.5 205.34 C-132.17 204.68 -131.84 204.02 -131.5 203.34 C-132.16 203.34 -132.82 203.34 -133.5 203.34 C-135.94 197.72 -138.23 192.04 -140.5 186.34 C-140.84 185.48 -141.19 184.61 -141.55 183.72 C-143.37 179.15 -144.79 175.32 -144.5 170.34 C-145.16 170.34 -145.82 170.34 -146.5 170.34 C-149.34 154.07 -151.49 138.72 -149.04 122.29 C-148.31 116.95 -148.07 111.64 -147.84 106.25 C-147.5 103.34 -147.5 103.34 -145.5 101.34 C-145.11 99.4 -145.11 99.4 -145 97.28 C-144.75 95.33 -144.75 95.33 -144.5 93.34 C-143.51 92.84 -143.51 92.84 -142.5 92.34 C-142.37 91.27 -142.25 90.19 -142.12 89.09 C-141.5 85.34 -141.5 85.34 -139.5 82.9 C-137.4 80.22 -137.21 79.44 -136.93 76.21 C-136.49 72.26 -136.4 71.66 -133.5 69.34 C-132.4 67.41 -132.4 67.41 -131.5 65.34 C-130.83 64.01 -130.16 62.67 -129.5 61.34 C-128.84 61.34 -128.18 61.34 -127.5 61.34 C-127.37 60.76 -127.25 60.18 -127.12 59.59 C-126.48 57.27 -125.77 55.39 -124.5 53.34 C-123.01 52.84 -123.01 52.84 -121.5 52.34 C-121.17 51.35 -120.84 50.36 -120.5 49.34 C-118.34 46.47 -116.09 43.82 -113.5 41.34 C-111.78 39.63 -110.24 37.88 -108.68 36.03 C-106.08 32.97 -103.37 30.13 -100.5 27.34 C-100 28.33 -100 28.33 -99.5 29.34 C-99.17 28.68 -98.84 28.02 -98.5 27.34 C-97.84 27.34 -97.18 27.34 -96.5 27.34 C-96 25.85 -96 25.85 -95.5 24.34 C-93.94 22.8 -93.94 22.8 -92.06 21.28 C-90.11 19.68 -88.28 18.12 -86.5 16.34 C-86.5 17.33 -86.5 18.32 -86.5 19.34 C-84.87 18.55 -83.24 17.76 -81.62 16.96 C-80.72 16.52 -79.81 16.08 -78.88 15.63 C-76.4 14.43 -76.4 14.43 -74.5 12.34 C-73.18 12.34 -71.86 12.34 -70.5 12.34 C-70.5 11.68 -70.5 11.02 -70.5 10.34 C-67.53 9.84 -67.53 9.84 -64.5 9.34 C-64.5 8.68 -64.5 8.02 -64.5 7.34 C-63.36 7.22 -62.23 7.09 -61.06 6.96 C-59.88 6.76 -58.71 6.55 -57.5 6.34 C-57.17 5.68 -56.84 5.02 -56.5 4.34 C-53.65 3.94 -50.83 3.83 -47.96 3.68 C-46.74 3.51 -46.74 3.51 -45.5 3.34 C-45.17 2.68 -44.84 2.02 -44.5 1.34 C-40.87 1.34 -37.24 1.34 -33.5 1.34 C-33.5 0.68 -33.5 0.02 -33.5 -0.66 C-32.69 -0.45 -31.89 -0.25 -31.06 -0.04 C-27.83 0.3 -26.23 0.17 -23.18 -0.6 C-15.16 -2.56 -8.04 -1.57 0 0 Z M-38.5 15.34 C-38.5 16 -38.5 16.66 -38.5 17.34 C-40.45 17.46 -40.45 17.46 -42.43 17.59 C-47.67 18.17 -51.82 20 -56.5 22.34 C-57.55 22.81 -58.6 23.29 -59.68 23.78 C-62.04 25.08 -63.6 26.25 -65.56 28.03 C-68.5 30.34 -68.5 30.34 -71.37 30.65 C-72.07 30.55 -72.77 30.45 -73.5 30.34 C-73.66 31.06 -73.83 31.78 -74 32.53 C-75.6 35.53 -76.35 36.07 -79.18 37.71 C-86.32 41.87 -90.85 47.43 -95.14 54.42 C-96.5 56.34 -96.5 56.34 -99.5 58.34 C-99.66 59.02 -99.83 59.7 -100 60.4 C-100.16 61.04 -100.33 61.68 -100.5 62.34 C-101.98 62.83 -101.98 62.83 -103.5 63.34 C-104.21 64.99 -104.88 66.65 -105.5 68.34 C-106.16 69 -106.82 69.66 -107.5 70.34 C-108.19 72.67 -108.85 75 -109.5 77.34 C-110.16 78.67 -110.83 80.01 -111.5 81.34 C-111.5 82.33 -111.5 83.32 -111.5 84.34 C-112.16 84.34 -112.82 84.34 -113.5 84.34 C-121.72 101.34 -123.87 124.78 -121.5 143.34 C-121.36 144.64 -121.22 145.93 -121.08 147.27 C-119.91 158.03 -118.19 168.5 -113.5 178.34 C-112.84 178.34 -112.18 178.34 -111.5 178.34 C-111.45 178.98 -111.4 179.62 -111.35 180.27 C-111.24 181.51 -111.24 181.51 -111.12 182.78 C-111.02 184.01 -111.02 184.01 -110.91 185.27 C-110.77 185.96 -110.64 186.64 -110.5 187.34 C-109.84 187.67 -109.18 188 -108.5 188.34 C-108.19 189.16 -107.88 189.99 -107.56 190.84 C-107.21 191.66 -106.86 192.49 -106.5 193.34 C-105.51 193.67 -104.52 194 -103.5 194.34 C-103.11 195.66 -102.79 197 -102.5 198.34 C-101.53 200.36 -100.53 202.36 -99.5 204.34 C-98.84 204.34 -98.18 204.34 -97.5 204.34 C-97.5 205 -97.5 205.66 -97.5 206.34 C-96.84 206.34 -96.18 206.34 -95.5 206.34 C-95.25 207.21 -95 208.07 -94.75 208.96 C-92.31 215.53 -89.78 218.4 -83.5 221.34 C-82.45 222.64 -81.44 223.97 -80.5 225.34 C-79.84 225.34 -79.18 225.34 -78.5 225.34 C-78.27 225.9 -78.04 226.45 -77.81 227.03 C-75.06 231.87 -71.23 234.75 -66.34 237.15 C-64.5 238.34 -64.5 238.34 -62.25 240.77 C-59.07 243.74 -55.91 245.08 -51.87 246.46 C-51.22 246.7 -50.57 246.94 -49.91 247.19 C-47.78 247.95 -45.64 248.65 -43.5 249.34 C-42.32 249.75 -42.32 249.75 -41.12 250.17 C-33.35 252.65 -25.72 252.83 -17.65 252.79 C-15.39 252.78 -13.15 252.81 -10.89 252.84 C-0.28 252.89 9.29 251.18 19.5 248.34 C19.5 247.68 19.5 247.02 19.5 246.34 C21.81 246.01 24.12 245.68 26.5 245.34 C26.5 245.01 26.5 244.68 26.5 244.34 C28.48 243.68 30.46 243.02 32.5 242.34 C32.5 241.68 32.5 241.02 32.5 240.34 C35.44 238.82 38.42 237.54 41.5 236.34 C41.5 235.68 41.5 235.02 41.5 234.34 C42.39 233.96 42.39 233.96 43.29 233.56 C45.69 232.24 47.11 230.81 48.94 228.78 C51.84 225.76 53.41 225.11 57.5 224.34 C58.89 222.37 60.22 220.37 61.5 218.34 C62.23 217.99 62.95 217.64 63.69 217.28 C64.29 216.97 64.89 216.66 65.5 216.34 C66.32 213.78 66.32 213.78 66.5 211.34 C67.16 211.34 67.82 211.34 68.5 211.34 C68.77 210.77 69.04 210.21 69.31 209.62 C69.84 208.52 69.84 208.52 70.38 207.4 C70.73 206.67 71.08 205.94 71.43 205.19 C72.5 203.34 72.5 203.34 74.5 202.34 C75.25 200.37 75.25 200.37 75.5 198.34 C75.17 198.01 74.84 197.68 74.5 197.34 C75.45 196.49 76.4 195.65 77.38 194.78 C80.6 191.58 81.47 188.78 82.5 184.34 C83 183.37 83.49 182.4 84 181.4 C85.81 177.72 86.6 174.34 87.5 170.34 C87.68 169.65 87.85 168.96 88.03 168.25 C88.39 166.8 88.68 165.32 88.94 163.84 C89.5 161.34 89.5 161.34 90.52 159.44 C91.58 157.17 91.76 155.74 91.76 153.26 C91.77 152.08 91.77 152.08 91.78 150.86 C91.78 150.02 91.77 149.18 91.77 148.3 C91.77 146.99 91.77 146.99 91.78 145.65 C91.78 143.81 91.77 141.96 91.76 140.11 C91.75 137.28 91.76 134.46 91.78 131.63 C91.78 129.83 91.77 128.04 91.77 126.24 C91.78 124.97 91.78 124.97 91.78 123.68 C91.75 118.71 91.75 118.71 89.5 114.34 C88.98 112.39 88.98 112.39 88.57 110.21 C87 102.67 84.27 95.52 81.5 88.34 C81.19 87.51 80.89 86.68 80.57 85.83 C78.68 80.89 76.79 76.5 73.5 72.34 C72.84 72.34 72.18 72.34 71.5 72.34 C71.5 70.36 71.5 68.38 71.5 66.34 C70.51 66.01 69.52 65.68 68.5 65.34 C67.5 63.65 67.5 63.65 66.5 61.34 C64.65 57.29 62.95 54.23 59.5 51.34 C58.84 51.34 58.18 51.34 57.5 51.34 C57.1 50.41 57.1 50.41 56.69 49.46 C55.55 47.04 55.55 47.04 52.5 45.34 C51.52 44.22 50.56 43.07 49.63 41.9 C46.39 38.04 43.31 35.94 38.5 34.34 C38.5 33.68 38.5 33.02 38.5 32.34 C36.41 31.17 34.31 30.01 32.21 28.85 C30.36 27.81 28.51 26.77 26.67 25.71 C25.73 25.17 24.79 24.64 23.82 24.09 C22.95 23.59 22.08 23.09 21.18 22.57 C18.27 21.23 15.67 20.73 12.5 20.34 C12.5 19.68 12.5 19.02 12.5 18.34 C11.39 18.22 10.28 18.09 9.13 17.96 C5.5 17.34 5.5 17.34 3.5 15.34 C-10.1 13.07 -24.85 14.03 -38.5 15.34 Z M-66.5 24.34 C-66.5 25.33 -66.5 26.32 -66.5 27.34 C-65.84 27.01 -65.18 26.68 -64.5 26.34 C-64.5 25.68 -64.5 25.02 -64.5 24.34 C-65.16 24.34 -65.82 24.34 -66.5 24.34 Z M-86.5 38.34 C-85.84 39 -85.18 39.66 -84.5 40.34 C-84.5 39.68 -84.5 39.02 -84.5 38.34 C-85.16 38.34 -85.82 38.34 -86.5 38.34 Z M-89.5 41.34 C-89.83 42.33 -90.16 43.32 -90.5 44.34 C-89.51 44.01 -88.52 43.68 -87.5 43.34 C-88.16 42.68 -88.82 42.02 -89.5 41.34 Z M102.5 69.34 C103.5 71.34 103.5 71.34 103.5 71.34 Z M106.5 186.34 C106.17 187.33 105.84 188.32 105.5 189.34 C106.49 189.01 107.48 188.68 108.5 188.34 C108.5 187.68 108.5 187.02 108.5 186.34 C107.84 186.34 107.18 186.34 106.5 186.34 Z M-102.5 199.34 C-101.5 201.34 -101.5 201.34 -101.5 201.34 Z M98.5 200.34 C98.17 201.33 97.84 202.32 97.5 203.34 C98.49 203.01 99.48 202.68 100.5 202.34 C100.5 201.68 100.5 201.02 100.5 200.34 C99.84 200.34 99.18 200.34 98.5 200.34 Z M93.5 209.34 C94.5 211.34 94.5 211.34 94.5 211.34 Z M89.5 212.34 C89.17 213.33 88.84 214.32 88.5 215.34 C89.49 215.01 90.48 214.68 91.5 214.34 C90.84 213.68 90.18 213.02 89.5 212.34 Z M68.5 235.34 C69.5 237.34 69.5 237.34 69.5 237.34 Z M55.5 243.34 C55.17 244.33 54.84 245.32 54.5 246.34 C55.49 246.01 56.48 245.68 57.5 245.34 C57.5 244.68 57.5 244.02 57.5 243.34 C56.84 243.34 56.18 243.34 55.5 243.34 Z " fill="#F7F7F7" transform="translate(1011.49609375,370.66015625)"/>
<path d="M0 0 C1.87 0.01 3.74 0.01 5.62 0.01 C10.16 0.02 14.71 0.04 19.25 0.06 C19.58 1.05 19.91 2.04 20.25 3.06 C19.59 3.39 18.93 3.72 18.25 4.06 C17.92 5.05 17.59 6.04 17.25 7.06 C16.59 7.06 15.93 7.06 15.25 7.06 C12.81 12.99 11 18.03 11.02 24.51 C11.02 25.81 11.02 27.11 11.02 28.44 C11.04 29.88 11.05 31.31 11.06 32.75 C11.07 34.27 11.08 35.79 11.08 37.31 C11.17 51.27 11.42 65.23 11.69 79.19 C11.71 80.24 11.73 81.29 11.75 82.37 C11.96 93.58 12.26 104.77 12.76 115.96 C13.19 125.84 13.37 135.71 13.46 145.59 C13.47 146.68 13.47 146.68 13.48 147.78 C13.51 150.75 13.53 153.72 13.56 156.69 C13.79 202.51 13.79 202.51 18.25 248.06 C18.91 248.06 19.57 248.06 20.25 248.06 C20.58 249.05 20.91 250.04 21.25 251.06 C22.24 251.39 23.23 251.72 24.25 252.06 C24.58 253.71 24.91 255.36 25.25 257.06 C20.67 259.35 16.56 259.39 11.55 259.44 C10.31 259.47 10.31 259.47 9.04 259.49 C6.4 259.55 3.76 259.59 1.12 259.62 C-1.52 259.67 -4.17 259.72 -6.81 259.77 C-8.46 259.8 -10.1 259.83 -11.74 259.85 C-14.99 259.91 -17.65 260.03 -20.75 261.06 C-20.75 260.4 -20.75 259.74 -20.75 259.06 C-21.41 259.06 -22.07 259.06 -22.75 259.06 C-22.75 255.06 -22.75 255.06 -20.5 252.44 C-18.2 250.45 -16.4 249.39 -13.75 248.06 C-12.71 244.95 -12.62 242.8 -12.62 239.54 C-12.62 237.84 -12.62 237.84 -12.61 236.11 C-12.61 234.89 -12.62 233.67 -12.62 232.41 C-12.62 231.15 -12.62 229.9 -12.61 228.61 C-12.61 225.95 -12.61 223.3 -12.62 220.65 C-12.63 217.25 -12.62 213.85 -12.62 210.45 C-12.61 207.21 -12.61 203.96 -12.62 200.72 C-12.61 198.89 -12.61 198.89 -12.61 197.02 C-12.61 195.88 -12.62 194.75 -12.62 193.59 C-12.62 192.59 -12.62 191.59 -12.62 190.57 C-12.64 187.93 -12.64 187.93 -13.75 185.06 C-13.89 183.18 -13.97 181.29 -14.03 179.4 C-14.09 177.71 -14.09 177.71 -14.14 176 C-14.18 174.82 -14.21 173.65 -14.25 172.44 C-14.48 164.93 -14.8 157.52 -15.75 150.06 C-21.05 154.44 -25.85 159.14 -30.61 164.09 C-32.75 166.06 -32.75 166.06 -34.75 166.06 C-34.85 166.67 -34.95 167.27 -35.06 167.89 C-35.87 170.45 -36.7 171.18 -38.8 172.81 C-43.13 176.33 -47.05 180.18 -51 184.12 C-51.71 184.82 -52.41 185.51 -53.14 186.23 C-56.57 189.65 -59.44 192.77 -61.75 197.06 C-62.74 198.36 -63.76 199.63 -64.81 200.88 C-65.32 201.48 -65.83 202.08 -66.35 202.71 C-67.75 204.06 -67.75 204.06 -69.75 204.06 C-70.08 205.05 -70.41 206.04 -70.75 207.06 C-71.41 207.06 -72.07 207.06 -72.75 207.06 C-73.08 208.05 -73.41 209.04 -73.75 210.06 C-74.41 210.06 -75.07 210.06 -75.75 210.06 C-75.96 210.6 -76.16 211.13 -76.38 211.69 C-78.28 214.98 -80.8 217.66 -83.75 220.06 C-84.41 220.06 -85.07 220.06 -85.75 220.06 C-86.08 221.38 -86.41 222.7 -86.75 224.06 C-87.37 224.14 -87.99 224.23 -88.62 224.31 C-89.33 224.56 -90.03 224.81 -90.75 225.06 C-91.01 225.62 -91.27 226.18 -91.54 226.75 C-93.22 229.97 -95.69 232.29 -98.25 234.81 C-98.75 235.32 -99.25 235.83 -99.76 236.35 C-103.5 240.06 -103.5 240.06 -105.75 240.06 C-105.87 240.68 -106 241.3 -106.12 241.94 C-106.75 244.06 -106.75 244.06 -108.75 246.06 C-110.9 249.41 -111.01 252.13 -110.75 256.06 C-110.42 256.39 -110.09 256.72 -109.75 257.06 C-109.71 258.73 -109.71 260.4 -109.75 262.06 C-111.07 262.06 -112.39 262.06 -113.75 262.06 C-113.75 262.72 -113.75 263.38 -113.75 264.06 C-122.36 264.93 -130.85 265.19 -139.5 265.12 C-140.69 265.12 -141.87 265.12 -143.09 265.11 C-145.98 265.1 -148.86 265.08 -151.75 265.06 C-150.98 260.27 -150.98 260.27 -148.88 258.38 C-148.17 257.94 -147.47 257.51 -146.75 257.06 C-145.76 256.4 -144.77 255.74 -143.75 255.06 C-143.26 256.05 -143.26 256.05 -142.75 257.06 C-140.77 254.75 -138.79 252.44 -136.75 250.06 C-136.09 250.39 -135.43 250.72 -134.75 251.06 C-130.6 247.02 -127.2 243.33 -124.75 238.06 C-124.09 238.06 -123.43 238.06 -122.75 238.06 C-122.54 237.53 -122.33 236.99 -122.11 236.44 C-120.22 233.15 -117.62 230.69 -114.94 228.05 C-114.37 227.49 -113.8 226.92 -113.21 226.34 C-111.4 224.53 -109.57 222.74 -107.75 220.94 C-106.52 219.72 -105.3 218.5 -104.07 217.29 C-101.83 215.06 -99.58 212.83 -97.33 210.61 C-95.8 209.1 -94.27 207.58 -92.75 206.06 C-92.07 205.59 -91.39 205.11 -90.69 204.62 C-88.47 203.13 -88.47 203.13 -87.75 200.06 C-87.09 200.06 -86.43 200.06 -85.75 200.06 C-85.42 199.07 -85.09 198.08 -84.75 197.06 C-84.1 195.72 -83.43 194.39 -82.75 193.06 C-82.09 193.06 -81.43 193.06 -80.75 193.06 C-80.49 192.48 -80.23 191.89 -79.96 191.29 C-77.83 187.36 -74.52 184.46 -71.38 181.31 C-70.7 180.62 -70.03 179.92 -69.34 179.2 C-68.68 178.54 -68.03 177.88 -67.35 177.2 C-66.46 176.3 -66.46 176.3 -65.55 175.38 C-63.75 174.06 -63.75 174.06 -59.75 174.06 C-59.69 173.51 -59.63 172.95 -59.56 172.38 C-58.41 169.11 -56.26 167.39 -53.75 165.06 C-52.47 163.98 -52.47 163.98 -52.38 161.44 C-52.82 157.42 -54.14 155.83 -56.57 152.74 C-58.08 150.6 -58.51 148.65 -58.75 146.06 C-59.41 146.06 -60.07 146.06 -60.75 146.06 C-62.04 144.6 -62.04 144.6 -63.38 142.69 C-63.82 142.06 -64.27 141.43 -64.73 140.79 C-65.75 139.06 -65.75 139.06 -65.75 137.06 C-66.41 136.73 -67.07 136.4 -67.75 136.06 C-68.59 134.82 -69.37 133.54 -70.12 132.25 C-72.06 129.06 -74.06 126.67 -76.75 124.06 C-80.53 119.55 -82.95 115.71 -84.75 110.06 C-86.06 108.71 -87.4 107.38 -88.75 106.06 C-89.27 105.01 -89.78 103.96 -90.31 102.88 C-91.49 99.76 -91.49 99.76 -94.75 99.06 C-95.79 97.42 -96.79 95.75 -97.75 94.06 C-98.45 93.39 -98.45 93.39 -99.16 92.7 C-101.1 90.71 -102.35 88.59 -103.75 86.19 C-104.24 85.34 -104.74 84.5 -105.25 83.63 C-105.74 82.78 -106.24 81.94 -106.75 81.06 C-107.31 80.17 -107.86 79.28 -108.44 78.37 C-109.75 76.06 -109.75 76.06 -109.75 74.06 C-110.74 73.57 -110.74 73.57 -111.75 73.06 C-112.18 72.32 -112.62 71.58 -113.06 70.81 C-114.7 67.9 -114.7 67.9 -117.44 65.38 C-118.2 64.61 -118.96 63.85 -119.75 63.06 C-119.75 62.4 -119.75 61.74 -119.75 61.06 C-120.41 61.06 -121.07 61.06 -121.75 61.06 C-122.02 60.42 -122.29 59.78 -122.56 59.12 C-123.64 56.73 -123.64 56.73 -126.75 56.06 C-127.3 54.22 -127.3 54.22 -127.75 52.06 C-128.7 50.3 -128.7 50.3 -129.89 48.6 C-130.54 47.65 -130.54 47.65 -131.2 46.67 C-131.65 46.02 -132.1 45.36 -132.56 44.69 C-133.22 43.72 -133.22 43.72 -133.89 42.73 C-134.76 41.45 -135.63 40.17 -136.51 38.89 C-137.67 37.18 -138.81 35.45 -139.95 33.72 C-141.69 31.16 -143.49 29.17 -145.75 27.06 C-147.81 25.09 -149.13 23.49 -150.75 21.06 C-152.41 20.04 -154.07 19.04 -155.75 18.06 C-157.6 16.41 -158.64 15.28 -159.75 13.06 C-160.31 13.27 -160.87 13.47 -161.45 13.68 C-164.42 14.17 -165.82 13.43 -168.5 12.12 C-169.3 11.74 -170.1 11.36 -170.92 10.97 C-171.53 10.67 -172.13 10.37 -172.75 10.06 C-172.75 8.08 -172.75 6.1 -172.75 4.06 C-157.01 2.11 -143.17 2.83 -128.75 10.06 C-128.26 11.55 -128.26 11.55 -127.75 13.06 C-126.42 13.42 -125.09 13.75 -123.75 14.06 C-118.76 17.66 -114.36 22.09 -110.75 27.06 C-110.75 28.05 -110.75 29.04 -110.75 30.06 C-109.76 30.39 -108.77 30.72 -107.75 31.06 C-106.47 32.77 -106.47 32.77 -105.25 34.88 C-103.9 37.15 -102.6 39.27 -101 41.38 C-99.75 43.06 -99.75 43.06 -98.75 46.06 C-97.27 46.56 -97.27 46.56 -95.75 47.06 C-95.26 49.54 -95.26 49.54 -94.75 52.06 C-94.09 52.06 -93.43 52.06 -92.75 52.06 C-91.43 54.37 -90.11 56.68 -88.75 59.06 C-89.08 59.39 -89.41 59.72 -89.75 60.06 C-88.27 60.56 -88.27 60.56 -86.75 61.06 C-86.36 61.89 -85.97 62.71 -85.56 63.56 C-83.45 67.64 -80.76 70.52 -77.68 73.89 C-75.4 76.46 -73.54 79.14 -71.75 82.06 C-71.17 82.97 -70.6 83.88 -70 84.81 C-68.75 87.06 -68.75 87.06 -68.75 89.06 C-68.09 89.06 -67.43 89.06 -66.75 89.06 C-65.02 91 -63.87 92.43 -63.38 95 C-62.61 97.51 -61.23 98.61 -59.36 100.38 C-54.46 105.52 -49.96 111 -48.75 118.06 C-48.15 118.35 -47.55 118.64 -46.94 118.94 C-44.05 120.42 -43.23 122.53 -41.75 125.32 C-40.42 127.63 -38.68 129.25 -36.75 131.06 C-33.75 134.6 -33.75 134.6 -33.75 138.06 C-32.1 138.39 -30.45 138.72 -28.75 139.06 C-25.96 135.79 -25.96 135.79 -23.88 132.06 C-22.12 128.94 -19.58 127.23 -16.75 125.06 C-16.42 125.06 -16.09 125.06 -15.75 125.06 C-15.73 120.49 -15.71 115.92 -15.7 111.35 C-15.69 109.8 -15.68 108.24 -15.67 106.69 C-15.66 104.45 -15.66 102.21 -15.65 99.96 C-15.65 99.28 -15.64 98.59 -15.64 97.89 C-15.64 93.52 -16.13 89.38 -16.75 85.06 C-16.93 82.16 -17 79.25 -17.07 76.34 C-17.09 75.52 -17.11 74.69 -17.13 73.85 C-17.17 72.11 -17.21 70.38 -17.25 68.64 C-17.31 66.03 -17.38 63.42 -17.44 60.81 C-17.65 52.23 -17.8 43.66 -17.68 35.06 C-17.82 29.09 -18.58 22.97 -20.82 17.41 C-21.75 15.06 -21.75 15.06 -21.75 12.06 C-23.73 11.07 -23.73 11.07 -25.75 10.06 C-25.75 9.4 -25.75 8.74 -25.75 8.06 C-26.41 8.06 -27.07 8.06 -27.75 8.06 C-28.79 6.42 -29.79 4.75 -30.75 3.06 C-31.74 2.07 -31.74 2.07 -32.75 1.06 C-21.84 -0.18 -10.96 -0.05 0 0 Z M-19.75 146.06 C-18.75 148.06 -18.75 148.06 -18.75 148.06 Z M-20.75 148.06 C-19.75 150.06 -19.75 150.06 -19.75 150.06 Z M-39.75 169.06 C-38.75 171.06 -38.75 171.06 -38.75 171.06 Z M-110.75 243.06 C-109.75 245.06 -109.75 245.06 -109.75 245.06 Z " fill="#F6F6F6" transform="translate(1236.75,669.9375)"/>
<path d="M0 0 C0.33 0 0.66 0 1 0 C1 158.73 1 317.46 1 481 C0.67 481 0.34 481 0 481 C0 322.27 0 163.54 0 0 Z " fill="#000100" transform="translate(819,102)"/>
<path d="M0 0 C1.27 0.93 2.54 1.87 3.81 2.81 C4.52 3.33 5.23 3.86 5.96 4.39 C7.79 5.83 9.4 7.32 11 9 C10.67 9.99 10.34 10.98 10 12 C7.5 10.62 7.5 10.62 5 9 C5 8.34 5 7.68 5 7 C4.34 7 3.68 7 3 7 C1.38 5.75 1.38 5.75 0 4 C0 2.68 0 1.36 0 0 Z " fill="#9B9B9A" transform="translate(492,582)"/>
<path d="M0 0 C0.66 0.66 1.32 1.32 2 2 C-1.3 5.3 -4.6 8.6 -8 12 C-8.66 11.34 -9.32 10.68 -10 10 C-6.7 6.7 -3.4 3.4 0 0 Z " fill="#757473" transform="translate(1141,895)"/>
<path d="M0 0 C6.6 0 13.2 0 20 0 C20 0.33 20 0.66 20 1 C13.4 1 6.8 1 0 1 C0 0.67 0 0.34 0 0 Z " fill="#000100" transform="translate(1219,930)"/>
<path d="M0 0 C0.66 0.33 1.32 0.66 2 1 C-0.31 3.31 -2.62 5.62 -5 8 C-5 5 -5 5 -2.5 2.31 C-1.67 1.55 -0.85 0.79 0 0 Z " fill="#AAA9A9" transform="translate(1108,912)"/>
<path d="M0 0 C0.33 0 0.66 0 1 0 C1 3.63 1 7.26 1 11 C0.67 11 0.34 11 0 11 C0 7.37 0 3.74 0 0 Z " fill="#000100" transform="translate(1129,519)"/>
<path d="M0 0 C0.33 0 0.66 0 1 0 C1 2.64 1 5.28 1 8 C0.67 8 0.34 8 0 8 C0 5.36 0 2.72 0 0 Z " fill="#FAFAFA" transform="translate(463,505)"/>
<path d="M0 0 C0.33 0 0.66 0 1 0 C1 2.64 1 5.28 1 8 C0.67 8 0.34 8 0 8 C0 5.36 0 2.72 0 0 Z " fill="#000100" transform="translate(717,490)"/>
<path d="M0 0 C2.64 0 5.28 0 8 0 C8 0.33 8 0.66 8 1 C5.36 1 2.72 1 0 1 C0 0.67 0 0.34 0 0 Z " fill="#000100" transform="translate(606,387)"/>
<path d="M0 0 C2.31 0 4.62 0 7 0 C7 0.33 7 0.66 7 1 C4.69 1 2.38 1 0 1 C0 0.67 0 0.34 0 0 Z " fill="#000100" transform="translate(1007,387)"/>
<path d="M0 0 C2.31 0 4.62 0 7 0 C7 0.33 7 0.66 7 1 C4.69 1 2.38 1 0 1 C0 0.67 0 0.34 0 0 Z " fill="#000100" transform="translate(974,387)"/>
<path d="M0 0 C0.66 0.33 1.32 0.66 2 1 C1.67 1.66 1.34 2.32 1 3 C0.01 2.67 -0.98 2.34 -2 2 C-1.34 2 -0.68 2 0 2 C0 1.34 0 0.68 0 0 Z " fill="#757473" transform="translate(665,592)"/>
<path d="M0 0 C0.66 0.33 1.32 0.66 2 1 C0.02 1.99 0.02 1.99 -2 3 C-1.34 2.01 -0.68 1.02 0 0 Z " fill="#8B8A89" transform="translate(696,564)"/>
<path d="M0 0 C0.33 0 0.66 0 1 0 C1 1.98 1 3.96 1 6 C0.67 6 0.34 6 0 6 C0 4.02 0 2.04 0 0 Z " fill="#FAFAFA" transform="translate(463,479)"/>
<path d="M0 0 C0.66 0.33 1.32 0.66 2 1 C0.02 1.99 0.02 1.99 -2 3 C-1.34 2.01 -0.68 1.02 0 0 Z " fill="#8B8A89" transform="translate(878,436)"/>
<path d="M0 0 C1.98 0 3.96 0 6 0 C6 0.33 6 0.66 6 1 C4.02 1 2.04 1 0 1 C0 0.67 0 0.34 0 0 Z " fill="#000100" transform="translate(573,387)"/>
<path d="M0 0 C1.98 0 3.96 0 6 0 C6 0.33 6 0.66 6 1 C4.02 1 2.04 1 0 1 C0 0.67 0 0.34 0 0 Z " fill="#000100" transform="translate(590,384)"/>
<path d="M0 0 C0.33 0.99 0.66 1.98 1 3 C0.01 2.67 -0.98 2.34 -2 2 C-1.34 2 -0.68 2 0 2 C0 1.34 0 0.68 0 0 Z " fill="#757473" transform="translate(1080,575)"/>
<path d="M0 0 C4 1 4 1 4 1 Z " fill="#FAFAFA" transform="translate(1233,668)"/>
<path d="M0 0 C1 4 1 4 1 4 Z " fill="#FAFAFA" transform="translate(463,487)"/>
<path d="" fill="#FAFAFA" transform="translate(0,0)"/>
<path d="M0 0 C3 1 3 1 3 1 Z " fill="#FAFAFA" transform="translate(1180,833)"/>
<path d="M0 0 C0.99 0.5 0.99 0.5 2 1 C1.01 1.5 1.01 1.5 0 2 C0 1.34 0 0.68 0 0 Z " fill="#FAFAFA" transform="translate(1209,805)"/>
<path d="M0 0 C3 1 3 1 3 1 Z " fill="#FAFAFA" transform="translate(668,591)"/>
<path d="" fill="#FAFAFA" transform="translate(0,0)"/>
<path d="" fill="#000100" transform="translate(0,0)"/>
<path d="" fill="#000100" transform="translate(0,0)"/>
<path d="M0 0 C0.99 0.5 0.99 0.5 2 1 C1.01 1.5 1.01 1.5 0 2 C0 1.34 0 0.68 0 0 Z " fill="#757473" transform="translate(514,385)"/>
<path d="M0 0 C2 1 2 1 2 1 Z " fill="#FAFAFA" transform="translate(247,933)"/>
<path d="M0 0 C2 1 2 1 2 1 Z " fill="#FAFAFA" transform="translate(1084,927)"/>
<path d="" fill="#FAFAFA" transform="translate(0,0)"/>
<path d="M0 0 C2 1 2 1 2 1 Z " fill="#000100" transform="translate(253,819)"/>
<path d="M0 0 C2 1 2 1 2 1 Z " fill="#FAFAFA" transform="translate(101,726)"/>
<path d="M0 0 C2 1 2 1 2 1 Z " fill="#FAFAFA" transform="translate(413,659)"/>
<path d="M0 0 C2 1 2 1 2 1 Z " fill="#FAFAFA" transform="translate(610,608)"/>
<path d="" fill="#000100" transform="translate(0,0)"/>
<path d="" fill="#FAFAFA" transform="translate(0,0)"/>
<path d="M0 0 C2 1 2 1 2 1 Z " fill="#FAFAFA" transform="translate(702,552)"/>
<path d="" fill="#757473" transform="translate(0,0)"/>
<path d="" fill="#000100" transform="translate(0,0)"/>
<path d="M0 0 C2 1 2 1 2 1 Z " fill="#FAFAFA" transform="translate(871,449)"/>
<path d="" fill="#000100" transform="translate(0,0)"/>
<path d="" fill="#FAFAFA" transform="translate(0,0)"/>
<path d="" fill="#000100" transform="translate(0,0)"/>
<path d="" fill="#000100" transform="translate(0,0)"/>
<path d="" fill="#FAFAFA" transform="translate(0,0)"/>
<path d="" fill="#000100" transform="translate(0,0)"/>
<path d="" fill="#000100" transform="translate(0,0)"/>
<path d="" fill="#FAFAFA" transform="translate(0,0)"/>
<path d="" fill="#757473" transform="translate(0,0)"/>
<path d="" fill="#000100" transform="translate(0,0)"/>
<path d="" fill="#757473" transform="translate(0,0)"/>
<path d="" fill="#FAFAFA" transform="translate(0,0)"/>
<path d="" fill="#FAFAFA" transform="translate(0,0)"/>
<path d="" fill="#FAFAFA" transform="translate(0,0)"/>
<path d="" fill="#FAFAFA" transform="translate(0,0)"/>
<path d="" fill="#757473" transform="translate(0,0)"/>
<path d="" fill="#000100" transform="translate(0,0)"/>
<path d="" fill="#FAFAFA" transform="translate(0,0)"/>
<path d="" fill="#000100" transform="translate(0,0)"/>
<path d="" fill="#000100" transform="translate(0,0)"/>
<path d="" fill="#FAFAFA" transform="translate(0,0)"/>
<path d="" fill="#FAFAFA" transform="translate(0,0)"/>
<path d="" fill="#000100" transform="translate(0,0)"/>
<path d="" fill="#757473" transform="translate(0,0)"/>
<path d="" fill="#000100" transform="translate(0,0)"/>
<path d="" fill="#757473" transform="translate(0,0)"/>
<path d="" fill="#FAFAFA" transform="translate(0,0)"/>
<path d="" fill="#757473" transform="translate(0,0)"/>
<path d="" fill="#FAFAFA" transform="translate(0,0)"/>
<path d="" fill="#FAFAFA" transform="translate(0,0)"/>
<path d="" fill="#757473" transform="translate(0,0)"/>
<path d="" fill="#000100" transform="translate(0,0)"/>
<path d="" fill="#757473" transform="translate(0,0)"/>
<path d="" fill="#000100" transform="translate(0,0)"/>
<path d="" fill="#FAFAFA" transform="translate(0,0)"/>
<path d="" fill="#FAFAFA" transform="translate(0,0)"/>
<path d="" fill="#FAFAFA" transform="translate(0,0)"/>
<path d="" fill="#757473" transform="translate(0,0)"/>
<path d="" fill="#000100" transform="translate(0,0)"/>
<path d="" fill="#FAFAFA" transform="translate(0,0)"/>
<path d="" fill="#757473" transform="translate(0,0)"/>
<path d="" fill="#000100" transform="translate(0,0)"/>
<path d="" fill="#FAFAFA" transform="translate(0,0)"/>
<path d="" fill="#000100" transform="translate(0,0)"/>
<path d="" fill="#000100" transform="translate(0,0)"/>
<path d="" fill="#000100" transform="translate(0,0)"/>
<path d="" fill="#757473" transform="translate(0,0)"/>
<path d="" fill="#FAFAFA" transform="translate(0,0)"/>
<path d="" fill="#757473" transform="translate(0,0)"/>
<path d="" fill="#000100" transform="translate(0,0)"/>
<path d="" fill="#757473" transform="translate(0,0)"/>
<path d="" fill="#757473" transform="translate(0,0)"/>
<path d="" fill="#FAFAFA" transform="translate(0,0)"/>
<path d="" fill="#FAFAFA" transform="translate(0,0)"/>
<path d="" fill="#000100" transform="translate(0,0)"/>
<path d="" fill="#000100" transform="translate(0,0)"/>
<path d="" fill="#000100" transform="translate(0,0)"/>
<path d="" fill="#757473" transform="translate(0,0)"/>
<path d="" fill="#757473" transform="translate(0,0)"/>
<path d="" fill="#757473" transform="translate(0,0)"/>
<path d="" fill="#000100" transform="translate(0,0)"/>
<path d="" fill="#FAFAFA" transform="translate(0,0)"/>
<path d="" fill="#FAFAFA" transform="translate(0,0)"/>
<path d="" fill="#757473" transform="translate(0,0)"/>
<path d="" fill="#000100" transform="translate(0,0)"/>
<path d="" fill="#FAFAFA" transform="translate(0,0)"/>
<path d="" fill="#FAFAFA" transform="translate(0,0)"/>
<path d="" fill="#FAFAFA" transform="translate(0,0)"/>
<path d="" fill="#FAFAFA" transform="translate(0,0)"/>
<path d="" fill="#FAFAFA" transform="translate(0,0)"/>
<path d="" fill="#FAFAFA" transform="translate(0,0)"/>
<path d="" fill="#FAFAFA" transform="translate(0,0)"/>
<path d="" fill="#FAFAFA" transform="translate(0,0)"/>
<path d="" fill="#FAFAFA" transform="translate(0,0)"/>
<path d="" fill="#FAFAFA" transform="translate(0,0)"/>
<path d="" fill="#FAFAFA" transform="translate(0,0)"/>
<path d="" fill="#757473" transform="translate(0,0)"/>
<path d="" fill="#FAFAFA" transform="translate(0,0)"/>
<path d="" fill="#FAFAFA" transform="translate(0,0)"/>
<path d="" fill="#000100" transform="translate(0,0)"/>
<path d="" fill="#FAFAFA" transform="translate(0,0)"/>
<path d="" fill="#757473" transform="translate(0,0)"/>
<path d="" fill="#FAFAFA" transform="translate(0,0)"/>
<path d="" fill="#757473" transform="translate(0,0)"/>
<path d="" fill="#FAFAFA" transform="translate(0,0)"/>
<path d="" fill="#FAFAFA" transform="translate(0,0)"/>
<path d="" fill="#FAFAFA" transform="translate(0,0)"/>
<path d="" fill="#000100" transform="translate(0,0)"/>
<path d="" fill="#FAFAFA" transform="translate(0,0)"/>
<path d="" fill="#757473" transform="translate(0,0)"/>
<path d="" fill="#000100" transform="translate(0,0)"/>
<path d="" fill="#FAFAFA" transform="translate(0,0)"/>
<path d="" fill="#FAFAFA" transform="translate(0,0)"/>
<path d="" fill="#000100" transform="translate(0,0)"/>
<path d="" fill="#000100" transform="translate(0,0)"/>
<path d="" fill="#757473" transform="translate(0,0)"/>
<path d="" fill="#757473" transform="translate(0,0)"/>
<path d="" fill="#757473" transform="translate(0,0)"/>
<path d="" fill="#757473" transform="translate(0,0)"/>
<path d="" fill="#757473" transform="translate(0,0)"/>
<path d="" fill="#FAFAFA" transform="translate(0,0)"/>
<path d="" fill="#FAFAFA" transform="translate(0,0)"/>
<path d="" fill="#000100" transform="translate(0,0)"/>
<path d="" fill="#000100" transform="translate(0,0)"/>
<path d="" fill="#FAFAFA" transform="translate(0,0)"/>
<path d="" fill="#000100" transform="translate(0,0)"/>
<path d="" fill="#757473" transform="translate(0,0)"/>
<path d="" fill="#FAFAFA" transform="translate(0,0)"/>
<path d="" fill="#000100" transform="translate(0,0)"/>
<path d="" fill="#FAFAFA" transform="translate(0,0)"/>
<path d="" fill="#FAFAFA" transform="translate(0,0)"/>
<path d="" fill="#FAFAFA" transform="translate(0,0)"/>
<path d="" fill="#FAFAFA" transform="translate(0,0)"/>
<path d="" fill="#FAFAFA" transform="translate(0,0)"/>
<path d="" fill="#757473" transform="translate(0,0)"/>
<path d="" fill="#FAFAFA" transform="translate(0,0)"/>
<path d="" fill="#FAFAFA" transform="translate(0,0)"/>
<path d="" fill="#FAFAFA" transform="translate(0,0)"/>
<path d="" fill="#757473" transform="translate(0,0)"/>
<path d="" fill="#FAFAFA" transform="translate(0,0)"/>
<path d="" fill="#FAFAFA" transform="translate(0,0)"/>
<path d="" fill="#757473" transform="translate(0,0)"/>
<path d="" fill="#757473" transform="translate(0,0)"/>
<path d="" fill="#757473" transform="translate(0,0)"/>
<path d="" fill="#FAFAFA" transform="translate(0,0)"/>
<path d="" fill="#FAFAFA" transform="translate(0,0)"/>
<path d="" fill="#FAFAFA" transform="translate(0,0)"/>
<path d="" fill="#FAFAFA" transform="translate(0,0)"/>
<path d="" fill="#FAFAFA" transform="translate(0,0)"/>
</svg>
