<?xml version="1.0" standalone="no"?>
<!DOCTYPE svg PUBLIC "-//W3C//DTD SVG 20010904//EN"
 "http://www.w3.org/TR/2001/REC-SVG-20010904/DTD/svg10.dtd">
<svg version="1.0" xmlns="http://www.w3.org/2000/svg"
 width="500.000000pt" height="500.000000pt" viewBox="0 0 500.000000 500.000000"
 preserveAspectRatio="xMidYMid meet">

<g transform="translate(0.000000,500.000000) scale(0.100000,-0.100000)"
fill="#000000" stroke="none">
<path d="M4149 2784 c-51 -15 -102 -65 -125 -120 -17 -40 -18 -173 -3 -229 17
-62 73 -110 143 -125 117 -24 216 14 258 97 31 63 33 218 4 273 -23 45 -54 78
-86 95 -41 21 -139 26 -191 9z m141 -112 c50 -51 52 -184 3 -242 -27 -32 -75
-40 -115 -19 -42 22 -61 128 -38 208 23 81 96 107 150 53z"/>
<path d="M30 2550 l0 -243 128 5 c162 6 202 23 245 107 23 47 27 67 27 141 0
109 -24 163 -90 199 -39 22 -59 25 -177 29 l-133 5 0 -243z m225 136 c44 -19
65 -61 65 -131 0 -103 -47 -155 -139 -155 l-41 0 0 150 0 150 40 0 c22 0 56
-6 75 -14z"/>
<path d="M635 2773 c-3 -10 -40 -110 -80 -223 -41 -113 -77 -213 -80 -222 -6
-16 0 -18 48 -18 l55 0 20 58 19 57 84 0 84 0 20 -57 20 -58 52 0 c29 0 53 4
53 9 0 4 -25 77 -56 162 -30 85 -68 188 -82 229 l-28 75 -61 3 c-51 2 -62 0
-68 -15z m93 -171 c12 -38 22 -74 22 -80 0 -8 -18 -12 -50 -12 -27 0 -50 3
-50 6 0 17 44 154 50 154 3 0 16 -31 28 -68z"/>
<path d="M980 2550 l0 -240 160 0 160 0 0 50 0 50 -105 0 -105 0 0 190 0 190
-55 0 -55 0 0 -240z"/>
<path d="M1360 2550 l0 -240 55 0 55 0 0 240 0 240 -55 0 -55 0 0 -240z"/>
<path d="M1540 2550 l0 -240 160 0 160 0 0 50 0 50 -110 0 -110 0 0 190 0 190
-50 0 -50 0 0 -240z"/>
<path d="M2059 2763 c-19 -50 -151 -418 -156 -435 -5 -16 2 -18 49 -18 l55 0
18 60 18 61 85 -3 85 -3 20 -57 19 -58 55 0 c48 0 55 2 50 18 -3 9 -41 116
-85 237 l-79 220 -62 3 c-59 3 -62 2 -72 -25z m95 -156 c10 -34 21 -70 23 -79
5 -16 -2 -18 -46 -18 -32 0 -51 4 -51 12 0 18 43 148 49 148 4 0 14 -28 25
-63z"/>
<path d="M2616 2774 c-3 -9 -6 -117 -6 -240 l0 -224 55 0 55 0 0 167 c0 92 4
163 8 158 5 -6 35 -74 67 -152 57 -142 58 -143 90 -143 32 0 32 0 90 148 32
81 62 151 67 157 4 5 8 -68 8 -163 l0 -172 55 0 55 0 0 240 0 240 -83 0 -82 0
-49 -132 c-27 -73 -52 -137 -56 -141 -4 -5 -12 5 -18 22 -6 17 -32 80 -57 141
l-47 110 -73 0 c-57 0 -74 -3 -79 -16z"/>
<path d="M3230 2550 l0 -240 175 0 175 0 0 45 0 44 -122 3 -123 3 -3 53 -3 52
115 0 116 0 0 45 0 44 -112 3 -113 3 -3 48 -3 47 125 0 126 0 0 45 0 45 -175
0 -175 0 0 -240z"/>
<path d="M3640 2550 l0 -240 65 0 66 0 -26 -27 c-14 -15 -25 -31 -25 -35 0
-16 30 -7 42 12 12 19 13 19 34 -1 35 -33 51 -12 18 22 l-28 29 87 0 87 0 0
50 0 50 -105 0 -105 0 0 190 0 190 -55 0 -55 0 0 -240z"/>
<path d="M290 2076 l0 -136 84 0 c92 0 120 13 131 61 5 19 0 34 -19 56 -23 27
-24 32 -11 43 8 7 15 27 15 46 0 44 -21 55 -121 61 l-79 6 0 -137z m136 69 c9
-23 -15 -45 -47 -45 -26 0 -29 4 -29 30 0 28 3 30 35 30 23 0 38 -6 41 -15z
m13 -109 c24 -29 -8 -56 -66 -56 -20 0 -23 5 -23 35 0 34 1 35 39 35 21 0 44
-6 50 -14z"/>
<path d="M593 2195 c-47 -20 -66 -65 -61 -141 5 -73 22 -99 80 -114 90 -25
158 28 158 123 0 69 -22 115 -64 132 -43 18 -71 18 -113 0z m99 -62 c6 -8 12
-37 12 -65 0 -41 -5 -54 -23 -69 -30 -24 -44 -24 -67 2 -28 31 -25 116 4 140
24 19 54 16 74 -8z"/>
<path d="M1633 2196 c-53 -24 -75 -69 -70 -145 3 -55 7 -67 31 -87 29 -26 83
-32 117 -14 13 7 19 7 19 0 0 -5 11 -10 25 -10 24 0 25 2 25 75 l0 75 -55 0
c-52 0 -55 -1 -55 -25 0 -20 5 -25 26 -25 21 0 25 -4 22 -22 -4 -31 -65 -39
-85 -12 -18 25 -16 95 3 123 17 23 42 25 101 6 32 -10 42 20 16 46 -26 26 -80
33 -120 15z"/>
<path d="M4585 2202 c-61 -21 -85 -59 -85 -138 0 -74 22 -108 79 -125 49 -14
105 2 128 38 14 21 14 26 2 34 -20 13 -35 11 -49 -6 -19 -23 -66 -19 -84 7
-22 31 -21 101 2 121 23 21 60 22 82 2 20 -19 50 -10 50 15 0 37 -75 69 -125
52z"/>
<path d="M100 2198 c0 -3 -20 -60 -45 -128 -25 -68 -45 -125 -45 -127 0 -2 13
-3 29 -3 23 0 31 6 40 30 9 28 13 30 60 30 47 0 50 -2 56 -30 5 -25 11 -30 36
-30 16 0 29 3 29 8 0 4 -20 61 -44 127 l-44 120 -36 3 c-20 2 -36 2 -36 0z
m53 -103 l16 -45 -30 0 c-16 0 -29 3 -29 8 0 12 21 82 25 82 2 0 10 -20 18
-45z"/>
<path d="M800 2070 l0 -130 30 0 c29 0 30 1 30 50 0 67 25 69 60 2 21 -39 30
-47 58 -50 17 -2 32 -1 32 2 0 3 -14 28 -31 56 l-31 51 26 20 c33 26 36 79 6
109 -17 17 -33 20 -100 20 l-80 0 0 -130z m121 80 c37 -21 11 -60 -40 -60 -17
0 -21 6 -21 35 0 29 4 35 21 35 11 0 29 -5 40 -10z"/>
<path d="M1040 2070 l0 -130 65 0 c101 0 130 22 149 113 9 41 -11 103 -41 126
-21 17 -40 21 -99 21 l-74 0 0 -130z m117 75 c42 -12 52 -105 14 -139 -9 -8
-29 -16 -46 -18 l-30 -3 -3 74 c-3 86 1 104 25 97 10 -2 28 -7 40 -11z"/>
<path d="M1370 2198 c0 -3 -20 -60 -45 -128 -25 -68 -45 -125 -45 -127 0 -2
13 -3 29 -3 23 0 31 6 40 30 9 28 13 30 60 30 47 0 50 -2 56 -30 5 -25 11 -30
36 -30 16 0 29 3 29 8 0 4 -20 61 -44 127 l-44 120 -36 3 c-20 2 -36 2 -36 0z
m53 -103 l16 -45 -30 0 c-18 0 -29 5 -29 14 0 14 20 76 25 76 2 0 10 -20 18
-45z"/>
<path d="M1820 2070 l0 -130 95 0 c95 0 95 0 95 25 0 24 -2 25 -70 25 l-70 0
0 30 0 30 65 0 c63 0 65 1 65 25 0 24 -2 25 -66 25 l-65 0 3 28 c3 26 5 27 71
30 59 3 67 5 67 22 0 18 -7 20 -95 20 l-95 0 0 -130z"/>
<path d="M2050 2070 l0 -130 30 0 30 0 0 93 1 92 36 -88 c26 -62 41 -87 52
-85 9 2 31 40 51 88 l35 85 3 -92 3 -93 29 0 30 0 0 131 0 130 -47 -3 -46 -3
-26 -72 c-14 -40 -28 -73 -31 -73 -3 0 -18 34 -34 75 l-29 75 -43 0 -44 0 0
-130z"/>
<path d="M2490 2175 c0 -22 4 -25 40 -25 l40 0 0 -105 0 -105 30 0 30 0 0 105
0 105 40 0 c36 0 40 3 40 25 l0 25 -110 0 -110 0 0 -25z"/>
<path d="M2730 2070 l0 -130 100 0 100 0 0 25 c0 24 -2 25 -70 25 l-70 0 0 30
0 30 60 0 c57 0 60 1 60 25 0 24 -3 25 -60 25 l-60 0 0 30 0 30 65 0 c58 0 65
2 65 20 0 19 -7 20 -95 20 l-95 0 0 -130z"/>
<path d="M2960 2070 l0 -130 30 0 c29 0 30 1 30 50 0 66 20 66 57 0 25 -44 32
-50 61 -50 l33 0 -31 54 -31 54 26 26 c32 32 32 70 0 101 -21 22 -33 25 -100
25 l-75 0 0 -130z m114 80 c46 -17 22 -60 -33 -60 -17 0 -21 6 -21 35 0 38 10
42 54 25z"/>
<path d="M3254 2148 c-9 -29 -30 -88 -45 -131 l-29 -78 32 3 c25 2 34 9 38 28
5 22 12 25 56 28 47 3 50 1 61 -28 9 -24 17 -30 41 -30 l29 0 -46 130 -46 130
-37 0 c-35 0 -37 -2 -54 -52z m65 -30 c25 -66 24 -68 -8 -68 -35 0 -35 -1 -19
51 13 45 16 47 27 17z"/>
<path d="M3470 2070 l0 -130 25 0 c23 0 25 4 25 45 0 40 3 45 23 45 12 0 39 5
60 11 30 8 42 18 53 45 32 76 -6 114 -113 114 l-73 0 0 -130z m131 64 c11 -14
10 -19 -10 -35 -13 -11 -34 -19 -47 -19 -21 0 -24 5 -24 35 0 33 2 35 34 35
19 0 39 -7 47 -16z"/>
<path d="M3690 2070 l0 -130 100 0 100 0 0 25 c0 24 -2 25 -70 25 l-70 0 0 30
0 30 60 0 c57 0 60 1 60 25 0 24 -3 25 -60 25 l-60 0 0 30 0 30 65 0 c58 0 65
2 65 20 0 19 -7 20 -95 20 l-95 0 0 -130z"/>
<path d="M3922 2090 c4 -128 15 -149 89 -157 99 -11 129 31 129 177 l0 90 -30
0 -30 0 0 -90 c0 -77 -3 -93 -20 -110 -24 -24 -29 -24 -58 -4 -20 14 -22 23
-22 110 l0 94 -31 0 -31 0 4 -110z"/>
<path d="M4160 2175 c0 -22 4 -25 40 -25 l40 0 0 -105 0 -105 30 0 30 0 0 105
0 105 40 0 c36 0 40 3 40 25 l0 25 -110 0 -110 0 0 -25z"/>
<path d="M4410 2070 l0 -130 25 0 25 0 0 130 0 130 -25 0 -25 0 0 -130z"/>
<path d="M4825 2188 c-2 -7 -23 -62 -45 -123 -22 -60 -40 -113 -40 -117 0 -5
13 -8 29 -8 25 0 31 5 36 30 6 28 9 30 56 30 47 0 51 -2 60 -30 9 -24 17 -30
40 -30 16 0 29 1 29 3 0 2 -20 59 -45 127 -25 68 -45 125 -45 127 0 10 -71 1
-75 -9z m64 -125 c1 -8 -11 -13 -28 -13 l-30 0 16 47 16 47 13 -34 c7 -19 13
-41 13 -47z"/>
</g>
</svg>
