<?xml version="1.0" encoding="UTF-8"?>
<!-- Generator: visioncortex VTracer 0.6.3 -->
<svg version="1.1" xmlns="http://www.w3.org/2000/svg" width="1280" height="1280">
<path d="M0 0 C0.99 2.48 0.99 2.48 2 5 C1.05 5.58 0.1 6.15 -0.88 6.75 C-4.86 9.62 -5.65 11.12 -6.53 15.85 C-7.29 21.42 -7.14 27.04 -7.13 32.66 C-7.13 33.92 -7.13 35.18 -7.13 36.48 C-7.14 39.94 -7.14 43.39 -7.13 46.84 C-7.13 50.47 -7.13 54.1 -7.14 57.73 C-7.14 63.83 -7.14 69.94 -7.13 76.05 C-7.12 83.06 -7.13 90.08 -7.13 97.1 C-7.14 103.16 -7.14 109.21 -7.13 115.27 C-7.13 118.87 -7.13 122.47 -7.14 126.08 C-7.49 150.13 -7.49 150.13 -5 174 C-4.34 174 -3.68 174 -3 174 C-3 174.66 -3 175.32 -3 176 C-2.04 176.37 -2.04 176.37 -1.06 176.75 C1 178 1 178 1.75 180.12 C1.83 180.74 1.91 181.36 2 182 C-1.82 184.55 -4.76 184.16 -9.17 183.98 C-9.96 183.95 -10.76 183.93 -11.58 183.9 C-14.11 183.82 -16.65 183.72 -19.19 183.62 C-20.91 183.57 -22.63 183.51 -24.35 183.45 C-28.57 183.31 -32.78 183.16 -37 183 C-37.58 181.11 -37.58 181.11 -38 179 C-36.69 177.25 -36.69 177.25 -35 176 C-34.34 176 -33.68 176 -33 176 C-29.91 168.34 -29.56 161.61 -29.57 153.4 C-29.56 152.05 -29.55 150.7 -29.54 149.35 C-29.51 145.71 -29.5 142.07 -29.49 138.42 C-29.48 134.61 -29.46 130.79 -29.43 126.98 C-29.39 119.76 -29.36 112.55 -29.34 105.33 C-29.31 97.12 -29.27 88.9 -29.22 80.68 C-29.13 63.79 -29.06 46.89 -29 30 C-29.66 30 -30.32 30 -31 30 C-31.08 30.76 -31.16 31.53 -31.25 32.31 C-32.42 38.05 -34.38 43.75 -37 49 C-37.66 49 -38.32 49 -39 49 C-38.96 49.78 -38.92 50.57 -38.88 51.38 C-39 54 -39 54 -41 56 C-41.99 58.47 -42.92 60.93 -43.81 63.44 C-45.93 69.25 -48.23 74.89 -50.85 80.49 C-52.73 84.59 -54.35 88.8 -56 93 C-56.75 94.88 -57.5 96.75 -58.25 98.62 C-58.59 99.46 -58.92 100.3 -59.27 101.16 C-59.51 101.77 -59.75 102.38 -60 103 C-60.66 103 -61.32 103 -62 103 C-61.96 103.78 -61.92 104.57 -61.88 105.38 C-62 108 -62 108 -64 110 C-64.64 111.35 -65.21 112.73 -65.75 114.12 C-66.1 115.02 -66.45 115.91 -66.8 116.83 C-67.67 119.14 -68.53 121.45 -69.38 123.76 C-72.55 132.38 -76 140.72 -80 149 C-80.66 149 -81.32 149 -82 149 C-81.93 150.09 -81.93 150.09 -81.86 151.21 C-82.02 154.31 -82.72 155.96 -84.19 158.69 C-84.64 159.55 -85.09 160.42 -85.56 161.31 C-86.04 162.2 -86.51 163.08 -87 164 C-89.72 169.27 -92.2 174.33 -94 180 C-94.66 180.99 -95.32 181.98 -96 183 C-97.32 183 -98.64 183 -100 183 C-102.58 180.32 -103.64 177.41 -105 174 C-105.97 171.91 -106.95 169.83 -107.94 167.75 C-109.99 163.34 -111.72 159.03 -113.15 154.39 C-114.66 150.13 -116.66 146.09 -118.6 142.02 C-119.83 139.37 -120.92 136.71 -122 134 C-122.65 132.68 -123.32 131.37 -124 130.06 C-125.67 126.78 -126.83 123.5 -128 120 C-128.92 118.15 -129.85 116.3 -130.79 114.46 C-141 93.62 -141 93.62 -141 86 C-141.66 86 -142.32 86 -143 86 C-144.27 82.35 -145.33 78.81 -146 75 C-146.66 75 -147.32 75 -148 75 C-148.47 73.48 -148.47 73.48 -148.95 71.93 C-149.38 70.58 -149.82 69.23 -150.25 67.88 C-150.45 67.21 -150.66 66.54 -150.87 65.86 C-152.33 61.36 -154.31 57.93 -157 54 C-157.77 52.09 -158.49 50.15 -159.12 48.19 C-159.7 46.44 -160.31 44.7 -161 43 C-161.66 42.67 -162.32 42.34 -163 42 C-163.05 55.09 -163.08 68.19 -163.1 81.28 C-163.11 87.36 -163.13 93.45 -163.15 99.53 C-163.44 131.18 -163.44 131.18 -162.12 162.79 C-162.04 163.87 -161.96 164.94 -161.88 166.05 C-161.61 169.55 -161.61 169.55 -161 173 C-160.34 173.33 -159.68 173.66 -159 174 C-159 174.66 -159 175.32 -159 176 C-158.01 176.33 -157.02 176.66 -156 177 C-154.81 179.56 -154.81 179.56 -154 182 C-155 183 -155 183 -157.68 183.11 C-158.85 183.11 -160.02 183.1 -161.22 183.1 C-162.48 183.09 -163.74 183.09 -165.04 183.09 C-166.38 183.08 -167.72 183.07 -169.06 183.06 C-170.41 183.06 -171.75 183.05 -173.1 183.05 C-176.4 183.04 -179.7 183.02 -183 183 C-183.33 182.01 -183.66 181.02 -184 180 C-182.63 178.21 -181.07 176.76 -179.45 175.21 C-175.17 168.68 -176.85 158.02 -176.85 150.53 C-176.85 149.07 -176.85 147.61 -176.84 146.15 C-176.84 142.21 -176.83 138.27 -176.83 134.33 C-176.83 131.87 -176.83 129.4 -176.83 126.94 C-176.82 118.33 -176.81 109.73 -176.81 101.12 C-176.82 93.11 -176.8 85.1 -176.79 77.09 C-176.78 70.2 -176.77 63.31 -176.77 56.42 C-176.77 52.31 -176.77 48.2 -176.76 44.09 C-176.75 40.23 -176.75 36.36 -176.76 32.5 C-176.76 31.08 -176.75 29.67 -176.75 28.26 C-176.31 16.27 -176.31 16.27 -181.62 6.06 C-182.41 5.38 -183.19 4.7 -184 4 C-182.25 1.79 -181.35 1.06 -178.54 0.58 C-175.4 0.53 -172.26 0.49 -169.12 0.5 C-167.49 0.46 -167.49 0.46 -165.82 0.41 C-157.84 0.39 -157.84 0.39 -153.87 3.25 C-152.21 5.69 -150.98 7.74 -150 10.5 C-149.68 11.36 -149.36 12.22 -149.03 13.11 C-148.69 14.07 -148.35 15.02 -148 16 C-145.03 24.5 -145.03 24.5 -141 32.5 C-138.47 36.61 -136.97 41.11 -135.28 45.61 C-132.61 52.69 -129.69 59.61 -126.41 66.42 C-121.87 75.86 -117.84 85.63 -116 96 C-115.34 96 -114.68 96 -114 96 C-113.67 97.98 -113.34 99.96 -113 102 C-112.34 102 -111.68 102 -111 102 C-110.69 102.93 -110.37 103.86 -110.05 104.82 C-107.53 112.49 -107.53 112.49 -103.94 119.69 C-101.72 123.48 -100.35 127.3 -98.93 131.45 C-98.07 133.97 -98.07 133.97 -96.89 136.13 C-95.63 138.77 -95.87 141.12 -96 144 C-94.68 144.33 -93.36 144.66 -92 145 C-90.22 141.83 -89.17 138.52 -88.1 135.06 C-85.64 127.19 -82.67 119.95 -78.83 112.65 C-76.26 107.7 -74.37 102.72 -72.79 97.36 C-72 95 -72 95 -70 92 C-69.69 91.06 -69.37 90.12 -69.05 89.15 C-68.02 86.06 -66.73 83.43 -65.19 80.56 C-62.16 74.67 -60.17 68.77 -58.27 62.45 C-56.94 58.85 -55.19 56.13 -53 53 C-52.27 51.02 -51.61 49.02 -51 47 C-48.68 40.49 -45.91 34.26 -43 28 C-42.34 28 -41.68 28 -41 28 C-41 26.35 -41 24.7 -41 23 C-40.01 22.67 -39.02 22.34 -38 22 C-38.05 21.15 -38.09 20.3 -38.14 19.42 C-37.98 15.62 -37.14 12.81 -35.81 9.25 C-35.41 8.12 -35 6.99 -34.58 5.83 C-33 3 -33 3 -30.9 1.65 C-26.85 0.74 -22.89 0.53 -18.75 0.38 C-17.94 0.34 -17.13 0.3 -16.3 0.26 C-10.86 0.01 -5.44 -0.03 0 0 Z " fill="#030303" transform="translate(296,540)"/>
<path d="M0 0 C0.81 0 1.61 0.01 2.44 0.01 C3.65 0 3.65 0 4.88 0 C7 0.13 7 0.13 9 1.13 C12.51 1.41 16.01 1.58 19.52 1.75 C22.82 2.11 24.96 2.92 28 4.13 C31.44 4.6 34.85 4.96 38.3 5.26 C43.52 5.8 43.52 5.8 45.71 7.32 C47.53 9.87 47.36 11.71 47.33 14.82 C47.33 15.93 47.32 17.04 47.32 18.19 C47.3 19.34 47.28 20.5 47.25 21.7 C47.25 22.86 47.24 24.02 47.24 25.22 C47.16 33.82 47.16 33.82 46 36.13 C44.35 35.8 42.7 35.47 41 35.13 C40.83 34.54 40.66 33.95 40.49 33.34 C38.69 27.47 37.22 23.07 31.72 19.76 C25.64 16.68 20.33 15.54 13.54 15.37 C11 15.13 11 15.13 8 13.13 C3.1 12.82 0.32 12.84 -4 15.13 C-5.79 15.26 -5.79 15.26 -7.62 15.38 C-15.91 16.29 -22.29 21.88 -27.62 27.91 C-31.04 33.44 -31.36 39.39 -31.37 45.7 C-31.4 46.42 -31.42 47.15 -31.45 47.9 C-31.48 54.02 -29.49 57.45 -25.29 61.96 C-24.78 62.43 -24.27 62.9 -23.75 63.38 C-22.84 64.29 -21.93 65.2 -21 66.13 C-21 66.79 -21 67.45 -21 68.13 C-20.44 68.24 -19.88 68.34 -19.3 68.45 C-16.57 69.26 -14.53 70.5 -12.12 72.01 C-4.95 76.39 1.97 79.18 9.93 81.75 C25.75 86.91 25.75 86.91 32.24 91.93 C34.16 93.24 35.78 93.58 38 94.13 C38.33 94.79 38.66 95.45 39 96.13 C40.04 96.69 41.07 97.25 42.13 97.82 C50.31 102.41 55.48 109.51 59 118.13 C59.43 120.71 59.35 122.52 59 125.13 C59.66 125.13 60.32 125.13 61 125.13 C62.69 128.51 62.19 132.3 62.19 136.01 C62.2 136.82 62.22 137.64 62.23 138.48 C62.23 139.27 62.23 140.06 62.23 140.88 C62.24 141.6 62.24 142.32 62.25 143.06 C61.97 145.46 61.13 147.01 60 149.13 C59.52 151.11 59.03 153.08 58.56 155.06 C56.71 161.98 53.13 169.11 47.94 174.13 C46 175.13 46 175.13 42 175.13 C41.67 176.12 41.34 177.11 41 178.13 C38.08 180.21 36.63 181.13 33 181.13 C33 181.79 33 182.45 33 183.13 C15.22 191.25 -7.34 191.73 -26 186.13 C-27.48 185.14 -27.48 185.14 -29 184.13 C-31.72 183.36 -34.43 182.66 -37.18 182.01 C-37.93 181.83 -38.68 181.64 -39.46 181.46 C-41.3 181.01 -43.15 180.57 -45 180.13 C-45 179.47 -45 178.81 -45 178.13 C-45.8 177.99 -46.6 177.84 -47.43 177.7 C-50 177.13 -50 177.13 -51 176.13 C-51.1 174.08 -51.13 172.03 -51.13 169.98 C-51.13 168.1 -51.13 168.1 -51.13 166.19 C-51.13 164.87 -51.13 163.55 -51.12 162.2 C-51.12 160.88 -51.13 159.57 -51.13 158.21 C-51.13 156.96 -51.13 155.71 -51.13 154.42 C-51.13 153.26 -51.13 152.11 -51.13 150.91 C-51 148.13 -51 148.13 -50 146.13 C-48.02 146.46 -46.04 146.79 -44 147.13 C-43.96 147.74 -43.92 148.34 -43.88 148.97 C-42.76 157.94 -37.72 163.08 -31.04 168.82 C-24.99 172.72 -17.01 173.35 -10 174.13 C-9.67 174.46 -9.34 174.79 -9 175.13 C-6.81 175.37 -4.62 175.55 -2.43 175.7 C-1.24 175.78 -0.04 175.86 1.2 175.95 C2.12 176.01 3.05 176.07 4 176.13 C4 175.47 4 174.81 4 174.13 C5.11 174.02 5.11 174.02 6.24 173.91 C17.08 172.5 25.87 168.55 33 160.13 C34.36 157.93 34.36 157.93 35 156.13 C35.66 156.13 36.32 156.13 37 156.13 C36.98 155.33 36.96 154.52 36.94 153.7 C37 151.13 37 151.13 38 150.13 C39.17 141.57 40.4 132.22 35.38 124.7 C34.7 123.92 34.7 123.92 34 123.13 C34 122.47 34 121.81 34 121.13 C32.52 120.64 32.52 120.64 31 120.13 C31 119.47 31 118.81 31 118.13 C29.52 117.64 29.52 117.64 28 117.13 C28 116.47 28 115.81 28 115.13 C27.34 115.13 26.68 115.13 26 115.13 C26 114.47 26 113.81 26 113.13 C22.38 111.64 18.73 110.35 15 109.13 C15 108.47 15 107.81 15 107.13 C13.35 107.13 11.7 107.13 10 107.13 C9.67 106.14 9.34 105.15 9 104.13 C6.03 103.64 6.03 103.64 3 103.13 C3 102.47 3 101.81 3 101.13 C2.24 101.17 1.48 101.22 0.69 101.26 C-2 101.13 -2 101.13 -5 99.13 C-7.56 98.53 -10.12 98.12 -12.72 97.7 C-15 97.13 -15 97.13 -17 95.13 C-18.15 94.74 -19.31 94.35 -20.5 93.95 C-25.1 92.31 -28.69 89.7 -32.61 86.82 C-34.62 85.4 -36.56 84.25 -38.75 83.13 C-44.57 79.55 -48.45 74.49 -51 68.13 C-51 66.81 -51 65.49 -51 64.13 C-51.66 64.13 -52.32 64.13 -53 64.13 C-53.13 63.32 -53.26 62.52 -53.4 61.68 C-53.58 60.61 -53.75 59.55 -53.93 58.45 C-54.11 57.39 -54.28 56.33 -54.46 55.25 C-54.8 53.28 -55.18 51.33 -55.62 49.38 C-56.12 46.41 -55.15 44.9 -54 42.13 C-53.91 40.96 -53.83 39.78 -53.75 38.57 C-53.12 32.62 -50.25 27.09 -47 22.13 C-44.86 20.97 -44.86 20.97 -43 20.13 C-42.67 19.14 -42.34 18.15 -42 17.13 C-41.34 17.13 -40.68 17.13 -40 17.13 C-39.67 16.14 -39.34 15.15 -39 14.13 C-38.34 14.13 -37.68 14.13 -37 14.13 C-36.67 13.14 -36.34 12.15 -36 11.13 C-35.34 11.13 -34.68 11.13 -34 11.13 C-34 10.47 -34 9.81 -34 9.13 C-28.38 6.46 -23.06 4.52 -17 3.13 C-16.34 2.8 -15.68 2.47 -15 2.13 C-11.88 1.82 -8.77 1.62 -5.65 1.41 C-2.92 1.12 -2.55 0.17 0 0 Z " fill="#030303" transform="translate(655.99609375,536.8671875)"/>
<path d="M0 0 C2.76 2.76 2.58 5.21 3 9 C4.01 8.24 5.02 7.47 6.06 6.69 C12.85 1.84 20.68 -1.28 29.05 -1.2 C30.16 -1.19 31.27 -1.18 32.41 -1.18 C33.56 -1.16 34.7 -1.14 35.88 -1.12 C37.62 -1.11 37.62 -1.11 39.41 -1.1 C42.27 -1.07 45.14 -1.04 48 -1 C48 -0.34 48 0.32 48 1 C48.82 0.92 49.65 0.84 50.5 0.75 C56.14 1.15 60.37 3.91 65 7 C65 7.66 65 8.32 65 9 C65.99 9.33 66.98 9.66 68 10 C68 10.66 68 11.32 68 12 C68.99 12.33 69.98 12.66 71 13 C71 13.66 71 14.32 71 15 C71.61 15.24 72.22 15.49 72.84 15.74 C75.42 17.25 76.14 18.49 77.5 21.12 C77.92 21.92 78.34 22.72 78.77 23.55 C79.17 24.36 79.58 25.17 80 26 C80.39 26.75 80.77 27.5 81.17 28.27 C83.84 33.49 85.12 37.4 85.16 43.36 C85.17 44.68 85.18 45.99 85.19 47.35 C85.19 48.05 85.2 48.76 85.2 49.48 C85.21 51.69 85.23 53.9 85.25 56.1 C85.31 62.38 85.37 68.66 85.4 74.94 C85.42 78.78 85.46 82.62 85.5 86.46 C85.52 87.92 85.52 89.38 85.53 90.84 C85.19 103.39 85.19 103.39 91 114 C90.62 116.62 90.62 116.62 90 119 C83.19 120.34 76.52 119.93 69.62 119.62 C68.42 119.58 67.22 119.54 65.99 119.49 C57.13 119.13 57.13 119.13 56 118 C55.69 115.62 55.69 115.62 56 113 C56.62 112.57 57.24 112.13 57.88 111.69 C61.16 109.08 61.15 106.05 62 102 C62.33 101.67 62.66 101.34 63 101 C63.1 99.27 63.14 97.53 63.15 95.79 C63.15 94.68 63.16 93.57 63.16 92.43 C63.17 91.22 63.17 90 63.17 88.76 C63.17 87.52 63.17 86.29 63.18 85.02 C63.18 82.4 63.19 79.78 63.19 77.16 C63.19 74.47 63.19 71.79 63.21 69.1 C63.22 65.23 63.23 61.37 63.23 57.51 C63.24 55.7 63.24 55.7 63.25 53.85 C63.25 52.18 63.25 52.18 63.24 50.47 C63.24 49.48 63.25 48.5 63.25 47.48 C63.17 44.75 63.17 44.75 61 42 C60.92 40.7 60.83 39.4 60.75 38.06 C60.03 30.85 57.21 23.7 51.59 18.97 C47.3 16.33 42.89 14.29 38 13 C38 12.34 38 11.68 38 11 C34.7 11 31.4 11 28 11 C28 11.66 28 12.32 28 13 C26.58 13.48 25.17 13.96 23.75 14.44 C22.96 14.7 22.17 14.97 21.36 15.25 C19.25 15.92 17.15 16.49 15 17 C15 17.66 15 18.32 15 19 C14.07 19.12 14.07 19.12 13.12 19.25 C10.89 19.78 10.89 19.78 10.06 21.62 C9.54 22.8 9.54 22.8 9 24 C7.74 25.8 6.44 27.56 5.12 29.32 C2.64 33.05 2.87 36.56 2.85 40.9 C2.85 41.6 2.85 42.3 2.84 43.02 C2.84 45.32 2.83 47.63 2.83 49.94 C2.83 51.54 2.83 53.14 2.82 54.75 C2.82 58.1 2.81 61.46 2.81 64.82 C2.81 69.13 2.8 73.44 2.78 77.75 C2.77 81.06 2.77 84.37 2.77 87.68 C2.77 89.26 2.77 90.85 2.76 92.44 C2.75 94.66 2.75 96.88 2.76 99.1 C2.76 100.36 2.75 101.62 2.75 102.93 C2.76 106.17 2.76 106.17 5 109 C5 109.99 5 110.98 5 112 C5.64 112.1 6.28 112.21 6.94 112.31 C7.62 112.54 8.3 112.77 9 113 C9.33 113.99 9.66 114.98 10 116 C8.48 117.99 8.48 117.99 6 120 C3.3 120.28 1.06 120.33 -1.61 120.17 C-2.34 120.14 -3.06 120.12 -3.81 120.09 C-6.13 119.99 -8.44 119.87 -10.75 119.75 C-12.32 119.68 -13.89 119.62 -15.46 119.55 C-19.31 119.39 -23.16 119.2 -27 119 C-27.33 118.01 -27.66 117.02 -28 116 C-27.07 115.13 -26.14 114.27 -25.19 113.38 C-16.26 103.31 -19.7 80.35 -19.74 67.84 C-19.75 64.14 -19.74 60.44 -19.73 56.75 C-19.72 46.17 -19.79 35.6 -20.64 25.05 C-20.68 24.3 -20.73 23.54 -20.77 22.76 C-21.18 18.72 -22.04 16.56 -25.08 14 C-26.05 13.34 -27.01 12.68 -28 12 C-27.68 9.03 -27.49 7.45 -25.25 5.39 C-22.81 3.88 -21.07 3.43 -18.25 3 C-14.85 2.41 -11.87 1.65 -8.69 0.31 C-5.04 -0.98 -3.55 -1.36 0 0 Z " fill="#030303" transform="translate(419,604)"/>
<path d="M0 0 C0 0.66 0 1.32 0 2 C0.99 2.33 1.98 2.66 3 3 C3 3.66 3 4.32 3 5 C3.66 5 4.32 5 5 5 C12.93 13.48 17.16 24.15 17.69 35.58 C17.85 38.26 17.85 38.26 20 41 C20.34 43.12 20.34 43.12 20.38 45.44 C20.4 46.2 20.43 46.96 20.46 47.75 C19.79 51.01 18.66 51.99 16 54 C13 54.4 10.37 54.56 7.38 54.55 C6.51 54.56 5.64 54.57 4.74 54.58 C1.88 54.61 -0.99 54.61 -3.86 54.61 C-5.85 54.62 -7.84 54.64 -9.83 54.66 C-15.06 54.7 -20.3 54.72 -25.53 54.74 C-30.87 54.76 -36.22 54.8 -41.56 54.84 C-52.04 54.92 -62.52 54.97 -73 55 C-72.86 56.76 -72.71 58.52 -72.56 60.27 C-72.48 61.25 -72.39 62.23 -72.31 63.24 C-71.96 66.39 -71.29 69.11 -70 72 C-69.34 72.33 -68.68 72.66 -68 73 C-68 74.65 -68 76.3 -68 78 C-66.52 78.5 -66.52 78.5 -65 79 C-65 79.66 -65 80.32 -65 81 C-63.52 81.5 -63.52 81.5 -62 82 C-59.45 84.48 -56.98 87.02 -54.5 89.56 C-50.55 92.86 -45.6 93.86 -40.73 95.2 C-38 96 -38 96 -37 97 C-34.59 97.13 -32.22 97.19 -29.81 97.19 C-28.5 97.2 -27.19 97.22 -25.83 97.23 C-22.13 97.01 -19.44 96.32 -16 95 C-15.25 94.78 -14.5 94.55 -13.73 94.32 C-8.21 92.65 -3.72 90.3 1 87 C1.89 86.4 2.77 85.8 3.69 85.19 C5.87 83.12 7.01 81.44 8.5 78.88 C10.19 75.99 10.77 75.12 13.81 73.5 C14.53 73.34 15.26 73.17 16 73 C18.25 75.25 17.33 80.29 17.38 83.31 C17.41 84.18 17.45 85.05 17.49 85.94 C17.58 92.36 17.58 92.36 14.66 95.61 C12 97 12 97 9 97 C9 97.66 9 98.32 9 99 C8.36 99.31 7.72 99.63 7.06 99.95 C6.19 100.38 5.33 100.81 4.44 101.25 C3.59 101.67 2.74 102.09 1.87 102.52 C-1.12 104.01 -1.12 104.01 -4.3 106.06 C-8.26 108.34 -12.14 109.1 -16.62 109.75 C-17.41 109.87 -18.2 109.99 -19.01 110.12 C-28.12 111.43 -36.94 111.89 -45.89 109.49 C-48.11 108.97 -50.17 108.86 -52.44 108.75 C-58.01 108.23 -62.65 105.42 -67 102 C-67 101.34 -67 100.68 -67 100 C-68.98 99.67 -70.96 99.34 -73 99 C-73 98.34 -73 97.68 -73 97 C-73.57 96.74 -74.14 96.49 -74.73 96.23 C-84.7 90.84 -89.8 80.45 -93 70 C-93.37 67.67 -93.71 65.34 -94 63 C-94.33 62.67 -94.66 62.34 -95 62 C-95.1 60.16 -95.13 58.31 -95.13 56.47 C-95.13 55.35 -95.14 54.23 -95.14 53.07 C-95.13 51.89 -95.13 50.72 -95.12 49.5 C-95.13 48.32 -95.13 47.14 -95.14 45.93 C-95.14 44.81 -95.13 43.69 -95.13 42.53 C-95.13 41.5 -95.13 40.46 -95.13 39.39 C-95 37 -95 37 -94 36 C-93.75 34.76 -93.51 33.52 -93.25 32.25 C-89.61 15.78 -81.58 5.73 -68 -4 C-49.29 -15.85 -16.99 -14.36 0 0 Z M-45 0 C-45.33 0.66 -45.66 1.32 -46 2 C-46.83 2.25 -47.65 2.5 -48.5 2.75 C-57.91 6.11 -64.58 12.69 -70 21 C-70.79 23.7 -70.79 23.7 -71 26 C-71.66 26 -72.32 26 -73 26 C-73.33 30.29 -73.66 34.58 -74 39 C-69.24 40.52 -65.28 41.25 -60.24 41.23 C-58.94 41.23 -57.64 41.23 -56.3 41.23 C-54.9 41.22 -53.5 41.21 -52.1 41.2 C-50.65 41.19 -49.2 41.19 -47.76 41.19 C-43.97 41.18 -40.18 41.16 -36.39 41.14 C-32.51 41.12 -28.64 41.11 -24.76 41.1 C-17.18 41.08 -9.59 41.04 -2 41 C-0.02 37.03 -0.3 32.1 -1.68 27.95 C-2.68 25.88 -3.79 23.95 -5 22 C-5.45 21.26 -5.89 20.51 -6.36 19.75 C-11.84 11.05 -17.15 5.89 -26.74 1.95 C-29 1 -29 1 -30 0 C-32.53 -0.07 -35.03 -0.09 -37.56 -0.06 C-38.27 -0.06 -38.98 -0.05 -39.72 -0.05 C-41.48 -0.04 -43.24 -0.02 -45 0 Z " fill="#030303" transform="translate(1144,615)"/>
<path d="M0 0 C1.5 0 1.5 0 3.03 0.01 C4.03 0.01 5.03 0 6.06 0 C8.53 0.13 8.53 0.13 9.53 1.13 C11.15 1.27 12.78 1.36 14.41 1.45 C20.58 1.93 25.85 3.77 31.53 6.13 C31.53 6.79 31.53 7.45 31.53 8.13 C32.24 8.22 32.94 8.3 33.67 8.39 C37.2 9.31 39.42 10.9 42.34 13.07 C43.32 13.78 44.3 14.49 45.3 15.22 C46.04 15.85 46.77 16.48 47.53 17.13 C47.53 17.79 47.53 18.45 47.53 19.13 C49.02 19.63 49.02 19.63 50.53 20.13 C50.53 20.79 50.53 21.45 50.53 22.13 C52.02 22.63 52.02 22.63 53.53 23.13 C57.53 29.19 57.53 29.19 57.53 34.13 C58.19 34.13 58.85 34.13 59.53 34.13 C61.61 39.44 63.2 44.6 64.53 50.13 C64.86 50.79 65.19 51.45 65.53 52.13 C65.66 54.58 65.72 56.99 65.72 59.45 C65.73 60.76 65.75 62.08 65.76 63.43 C65.55 66.9 64.95 69.02 63.53 72.13 C63.31 73.8 63.31 73.8 63.09 75.51 C62.47 79.55 61.26 82.45 59.53 86.13 C58.87 86.13 58.21 86.13 57.53 86.13 C57.2 88.11 56.87 90.09 56.53 92.13 C55.87 92.13 55.21 92.13 54.53 92.13 C54.2 93.78 53.87 95.43 53.53 97.13 C52.87 97.13 52.21 97.13 51.53 97.13 C51.26 97.72 50.99 98.31 50.71 98.91 C47.93 104.15 43.46 108.89 38.53 112.13 C37.21 112.13 35.89 112.13 34.53 112.13 C34.53 112.79 34.53 113.45 34.53 114.13 C31.77 116.58 28.96 117.84 25.53 119.13 C25.2 119.46 24.87 119.79 24.53 120.13 C7.75 124.21 -10.79 125.67 -26.47 117.13 C-26.47 116.47 -26.47 115.81 -26.47 115.13 C-29.44 114.64 -29.44 114.64 -32.47 114.13 C-32.47 113.47 -32.47 112.81 -32.47 112.13 C-33.52 112.04 -33.52 112.04 -34.59 111.95 C-40.59 110.25 -46.17 104.36 -49.47 99.13 C-49.47 97.81 -49.47 96.49 -49.47 95.13 C-50.46 94.8 -51.45 94.47 -52.47 94.13 C-52.47 92.48 -52.47 90.83 -52.47 89.13 C-53.46 88.8 -54.45 88.47 -55.47 88.13 C-56.6 85.23 -56.6 85.23 -57.59 81.63 C-58.44 77.57 -58.44 77.57 -60.47 74.13 C-61.67 61.52 -61.52 49.47 -55.47 38.13 C-55.14 37.47 -54.81 36.81 -54.47 36.13 C-53.81 36.13 -53.15 36.13 -52.47 36.13 C-52.45 35.18 -52.43 34.24 -52.41 33.26 C-51.09 24.49 -43.82 18 -37.07 12.95 C-26.9 5.85 -18.09 2.08 -5.62 1.34 C-2.96 1.08 -2.77 0.15 0 0 Z M-6.47 14.13 C-7.98 14.53 -7.98 14.53 -9.53 14.95 C-18.93 17.5 -26.72 23.43 -32.06 31.55 C-40.36 46.75 -39.51 66.38 -34.89 82.66 C-34.44 84.16 -33.96 85.65 -33.47 87.13 C-32.81 87.13 -32.15 87.13 -31.47 87.13 C-31.28 87.79 -31.1 88.45 -30.91 89.13 C-27.72 95.78 -21.19 103.23 -14.23 106.03 C-12.7 106.54 -11.17 107.01 -9.62 107.46 C-7.47 108.13 -7.47 108.13 -5.63 109.2 C-2.56 110.53 0.14 110.4 3.47 110.38 C4.67 110.39 5.88 110.39 7.12 110.4 C10.41 110.14 12.56 109.48 15.53 108.13 C17.52 107.76 19.52 107.41 21.53 107.13 C21.53 106.47 21.53 105.81 21.53 105.13 C22.09 104.89 22.64 104.64 23.22 104.38 C31.87 99.71 38.44 90.38 41.53 81.13 C42.08 77.79 42.41 74.44 42.72 71.07 C42.81 70.17 42.91 69.27 43.01 68.35 C43.4 64.29 43.63 61.09 42.53 57.13 C42.38 55.03 42.26 52.93 42.16 50.82 C41.8 45.57 41.01 41.76 38.53 37.13 C37.87 37.13 37.21 37.13 36.53 37.13 C36.2 35.48 35.87 33.83 35.53 32.13 C34.87 32.13 34.21 32.13 33.53 32.13 C33.13 31.26 33.13 31.26 32.71 30.36 C31.54 28.14 30.27 26.37 28.66 24.45 C28.16 23.84 27.67 23.24 27.16 22.62 C25.31 20.93 23.98 20.53 21.53 20.13 C21.53 19.47 21.53 18.81 21.53 18.13 C17.56 16.47 13.52 15.13 9.42 13.82 C7.53 13.13 7.53 13.13 6.53 12.13 C4.72 12.01 2.91 11.96 1.09 11.95 C0.11 11.93 -0.88 11.92 -1.9 11.9 C-4.63 11.87 -4.63 11.87 -6.47 14.13 Z " fill="#030303" transform="translate(873.46875,602.8671875)"/>
<path d="M0 0 C1.68 0.29 3.34 0.62 5 1 C5.01 1.82 5.01 1.82 5.02 2.66 C5.11 8.33 5.21 14.01 5.32 19.69 C5.36 21.81 5.39 23.93 5.42 26.05 C5.47 29.09 5.53 32.14 5.59 35.18 C5.6 36.13 5.61 37.08 5.62 38.06 C5.64 38.95 5.66 39.83 5.68 40.73 C5.69 41.51 5.71 42.29 5.72 43.09 C5.84 45.24 5.84 45.24 8 47 C10.64 47.29 10.64 47.29 13.71 47.24 C15.42 47.26 15.42 47.26 17.17 47.29 C19.59 47.3 22 47.31 24.42 47.3 C34.26 47.47 34.26 47.47 37.34 50.37 C39 53 39 53 38.81 55.81 C38.41 56.9 38.41 56.9 38 58 C37.34 58 36.68 58 36 58 C35.67 58.99 35.34 59.98 35 61 C33.79 61.03 33.79 61.03 32.55 61.06 C28.91 61.16 25.27 61.26 21.62 61.38 C20.35 61.41 19.08 61.44 17.77 61.47 C16.56 61.51 15.35 61.55 14.1 61.59 C12.42 61.63 12.42 61.63 10.71 61.68 C7.85 61.73 7.85 61.73 6 64 C5.69 66.97 5.69 66.97 5.74 70.51 C5.74 71.18 5.73 71.85 5.73 72.54 C5.72 74.75 5.73 76.97 5.73 79.18 C5.73 80.72 5.73 82.26 5.73 83.79 C5.73 87.02 5.73 90.24 5.74 93.47 C5.75 97.6 5.74 101.73 5.73 105.87 C5.72 109.04 5.73 112.22 5.73 115.39 C5.73 116.92 5.73 118.44 5.73 119.97 C5.72 122.1 5.73 124.23 5.74 126.36 C5.74 127.57 5.74 128.78 5.75 130.03 C5.78 133.19 5.78 133.19 8 136 C8.37 139.1 8.51 142.17 8.66 145.29 C8.74 148.15 8.74 148.15 11 150 C11 150.99 11 151.98 11 153 C18.1 152.65 18.1 152.65 24 149 C24.66 149 25.32 149 26 149 C26.25 148.32 26.5 147.64 26.75 146.94 C28.24 143.43 30.07 140.28 32 137 C36 137 36 137 37.71 138.08 C40.73 142.58 39.8 148.87 39 154 C35.94 159.4 30.36 162.21 25 165 C24.67 165.33 24.34 165.66 24 166 C20.36 166.25 16.71 166.19 13.06 166.19 C12.03 166.2 11.01 166.21 9.95 166.22 C8.97 166.23 7.98 166.23 6.97 166.23 C6.07 166.23 5.16 166.24 4.23 166.24 C2 166 2 166 0 164 C-1.65 163.29 -3.32 162.62 -5 162 C-5 161.34 -5 160.68 -5 160 C-5.99 159.67 -6.98 159.34 -8 159 C-9.35 156.86 -9.35 156.86 -10.62 154.19 C-11.05 153.31 -11.48 152.44 -11.91 151.54 C-14 146.66 -14.17 142.19 -14.21 136.93 C-14.22 136.12 -14.23 135.31 -14.24 134.47 C-14.27 131.8 -14.29 129.13 -14.32 126.45 C-14.34 124.6 -14.36 122.74 -14.38 120.89 C-14.43 116.01 -14.48 111.13 -14.53 106.25 C-14.58 101.27 -14.64 96.29 -14.69 91.31 C-14.8 81.54 -14.9 71.77 -15 62 C-16.5 61.91 -16.5 61.91 -18.03 61.82 C-19.32 61.73 -20.61 61.65 -21.94 61.56 C-23.23 61.48 -24.51 61.4 -25.84 61.32 C-29 61 -29 61 -30 60 C-30.2 57.79 -30.2 57.79 -30.25 55.06 C-30.28 54.17 -30.3 53.27 -30.33 52.35 C-30.22 51.57 -30.11 50.8 -30 50 C-26.47 47.65 -24.97 47.79 -20.81 47.88 C-19.73 47.89 -18.64 47.91 -17.52 47.93 C-16.69 47.95 -15.86 47.98 -15 48 C-14.94 43.58 -14.91 39.17 -14.88 34.75 C-14.86 33.5 -14.84 32.24 -14.82 30.95 C-14.82 29.74 -14.81 28.54 -14.8 27.3 C-14.79 25.63 -14.79 25.63 -14.77 23.93 C-15 21.02 -15.37 19.4 -17 17 C-17.87 16.53 -18.73 16.05 -19.62 15.56 C-20.8 14.79 -20.8 14.79 -22 14 C-22.15 11.4 -22.15 11.4 -22 9 C-15.77 6.46 -9.5 4.07 -3.15 1.83 C-1.05 1.19 -1.05 1.19 0 0 Z " fill="#030303" transform="translate(761,557)"/>
<path d="M0 0 C2 1.12 2 1.12 3 3 C3.19 6.19 3.19 6.19 3 9 C3.64 8.4 3.64 8.4 4.29 7.79 C4.87 7.26 5.46 6.73 6.06 6.19 C6.63 5.67 7.2 5.14 7.79 4.61 C14.45 -0.23 20.42 -0.49 28.44 -0.44 C29.44 -0.46 30.43 -0.48 31.46 -0.5 C38.06 -0.49 42.41 0.41 48 4 C49 6.75 49 6.75 49 9 C48.01 9.33 47.02 9.66 46 10 C46.08 10.7 46.16 11.4 46.25 12.12 C45.91 16.06 44.55 18.03 42 21 C39.5 21.62 39.5 21.62 37 21 C36.45 20.34 35.9 19.69 35.33 19.01 C32.17 16.28 29.25 16.33 25.25 16.25 C24.55 16.22 23.86 16.19 23.14 16.16 C21.43 16.09 19.71 16.04 18 16 C18 16.66 18 17.32 18 18 C15.03 18.5 15.03 18.5 12 19 C12 19.66 12 20.32 12 21 C10.69 21.85 9.37 22.69 8.05 23.53 C4.97 26.17 4.08 27.58 3.28 31.61 C2.95 36.26 3.07 40.91 3.18 45.57 C3.2 47.3 3.2 49.02 3.21 50.75 C3.24 55.28 3.31 59.81 3.39 64.35 C3.45 68.05 3.48 71.74 3.5 75.44 C3.55 83.09 3.63 90.74 3.76 98.38 C3.77 99.08 3.78 99.78 3.79 100.51 C3.86 104.12 4.16 107.49 5 111 C5.99 111.33 6.98 111.66 8 112 C8.33 113.98 8.66 115.96 9 118 C-2.88 118 -14.76 118 -27 118 C-27 114 -27 114 -25 111 C-24.34 111 -23.68 111 -23 111 C-20.38 102.05 -20.71 93.04 -20.73 83.8 C-20.73 82.03 -20.73 80.26 -20.73 78.49 C-20.73 74.8 -20.73 71.11 -20.74 67.42 C-20.75 62.69 -20.74 57.96 -20.73 53.24 C-20.72 49.59 -20.73 45.94 -20.73 42.3 C-20.73 40.56 -20.73 38.81 -20.73 37.07 C-20.72 34.64 -20.73 32.2 -20.74 29.77 C-20.74 29.05 -20.73 28.34 -20.73 27.6 C-20.78 21.55 -22.1 17.65 -26.12 13.19 C-26.66 12.58 -27.2 11.98 -27.76 11.36 C-28.17 10.91 -28.58 10.46 -29 10 C-28.2 8.07 -28.2 8.07 -27 6 C-23.81 4.88 -23.81 4.88 -20 4 C-15.19 2.7 -15.19 2.7 -10.56 0.88 C-6.82 -0.4 -3.95 -0.32 0 0 Z " fill="#030303" transform="translate(987,605)"/>
<path d="M0 0 C2.06 3.1 2.25 3.76 2.27 7.27 C2.28 8.14 2.29 9.01 2.3 9.91 C2.3 10.86 2.3 11.81 2.3 12.79 C2.31 13.8 2.32 14.8 2.33 15.84 C2.35 19.17 2.37 22.5 2.38 25.83 C2.4 28.15 2.41 30.46 2.43 32.77 C2.48 38.87 2.51 44.97 2.54 51.07 C2.59 60.82 2.66 70.57 2.73 80.32 C2.75 83.73 2.77 87.13 2.79 90.54 C2.8 92.63 2.81 94.73 2.83 96.82 C2.83 97.77 2.83 98.71 2.83 99.69 C2.88 106.4 2.88 106.4 4 113 C5.97 114.15 5.97 114.15 8 115 C8.75 117.12 8.75 117.12 9 119 C5.37 121.42 2.88 121.17 -1.29 120.98 C-2 120.95 -2.71 120.93 -3.43 120.9 C-5.68 120.82 -7.94 120.72 -10.19 120.62 C-11.72 120.57 -13.24 120.51 -14.77 120.45 C-18.51 120.31 -22.26 120.16 -26 120 C-26.59 117.6 -26.59 117.6 -27 115 C-25.62 113.38 -25.62 113.38 -24 112 C-22.68 108.04 -22.63 104.15 -22.45 100.01 C-22.4 99.09 -22.36 98.16 -22.32 97.21 C-21.87 86.27 -21.85 75.33 -21.87 64.39 C-21.88 60.87 -21.87 57.36 -21.86 53.84 C-21.86 40.86 -22.14 27.95 -23 15 C-23.64 14.72 -24.29 14.45 -24.95 14.16 C-27 13 -27 13 -27.75 10.38 C-27.83 9.59 -27.91 8.81 -28 8 C-25.12 5.58 -23.02 4.57 -19.31 4 C-15.79 3.39 -12.55 2.58 -9.19 1.38 C-6.02 0.28 -3.38 -0.61 0 0 Z " fill="#030303" transform="translate(568,603)"/>
<path d="M0 0 C1.92 1.92 1.13 4.8 1.14 7.36 C1.14 8.28 1.14 9.19 1.14 10.13 C1.15 11.57 1.15 11.57 1.15 13.04 C1.16 15.13 1.17 17.23 1.17 19.32 C1.18 22.64 1.19 25.95 1.21 29.27 C1.26 38.71 1.31 48.14 1.33 57.58 C1.34 63.34 1.37 69.11 1.41 74.87 C1.42 77.07 1.42 79.26 1.42 81.45 C1.42 84.54 1.44 87.62 1.47 90.7 C1.46 91.6 1.46 92.5 1.45 93.42 C1.53 99.23 2.75 103.68 5.14 108.98 C6 111 6 111 6 113 C6.99 113.33 7.98 113.66 9 114 C10.19 116.56 10.19 116.56 11 119 C7.27 121.48 4.56 121.17 0.27 120.98 C-0.48 120.95 -1.23 120.93 -2 120.9 C-4.4 120.82 -6.79 120.72 -9.19 120.62 C-10.81 120.57 -12.44 120.51 -14.06 120.45 C-18.04 120.31 -22.02 120.16 -26 120 C-26 118.02 -26 116.04 -26 114 C-25.38 113.77 -24.76 113.55 -24.12 113.31 C-21.39 111.62 -20.95 110.01 -20 107 C-19.34 107 -18.68 107 -18 107 C-18.08 95.89 -18.18 84.78 -18.29 73.67 C-18.34 68.51 -18.38 63.35 -18.42 58.2 C-18.46 53.22 -18.51 48.24 -18.56 43.26 C-18.58 41.36 -18.59 39.46 -18.6 37.56 C-18.62 34.9 -18.65 32.24 -18.68 29.58 C-18.68 28.79 -18.69 28.01 -18.69 27.2 C-18.76 22.77 -19.36 19.13 -21 15 C-22.65 14.67 -24.3 14.34 -26 14 C-26.33 12.35 -26.66 10.7 -27 9 C-23.28 5.4 -20.26 4.41 -15.34 3.5 C-13.01 3 -10.96 2.27 -8.75 1.38 C-5.45 0.17 -3.44 -0.42 0 0 Z " fill="#030303" transform="translate(353,603)"/>
<path d="M0 0 C1.05 -0.03 2.09 -0.05 3.17 -0.08 C6.67 0.29 8.46 1.14 11.25 3.25 C14.05 8.17 15.22 12.69 14.25 18.25 C12.85 22.21 10.94 24.78 7.44 27.19 C2.27 28.91 -1.34 28.72 -6.5 27 C-11.09 24.53 -12.56 22.28 -14.12 17.44 C-15.12 12.94 -14.09 10.25 -11.75 6.25 C-9.12 3.38 -9.12 3.38 -6.75 1.25 C-4.96 -0.54 -2.41 0.04 0 0 Z " fill="#030303" transform="translate(1198.75,695.75)"/>
<path d="M0 0 C1.32 -0.05 2.63 -0.1 3.99 -0.15 C8.52 0.49 9.85 1.88 12.69 5.38 C15.4 9.12 14.9 12.91 14.69 17.38 C14.36 18.03 14.03 18.7 13.69 19.38 C13.03 19.38 12.37 19.38 11.69 19.38 C11.36 20.37 11.03 21.36 10.69 22.38 C10.03 22.38 9.37 22.38 8.69 22.38 C8.36 23.37 8.03 24.36 7.69 25.38 C3.43 28.21 -0.31 28.14 -5.31 27.38 C-8.68 25.75 -11.6 23.81 -13.31 20.38 C-13.44 18.06 -13.49 15.75 -13.5 13.44 C-13.51 12.19 -13.53 10.94 -13.54 9.66 C-13.31 6.38 -13.31 6.38 -11.31 3.38 C-10.65 3.38 -9.99 3.38 -9.31 3.38 C-9.31 2.72 -9.31 2.05 -9.31 1.38 C-6.33 -0.12 -3.28 0.07 0 0 Z " fill="#030303" transform="translate(555.3125,564.625)"/>
<path d="M0 0 C0 0.66 0 1.32 0 2 C0.99 2.33 1.98 2.66 3 3 C3.14 5.75 3.23 8.5 3.31 11.25 C3.35 12.03 3.4 12.8 3.44 13.61 C3.49 15.84 3.46 17.81 3 20 C0.67 22.42 0.67 22.42 -2 24 C-2.99 24.66 -3.98 25.32 -5 26 C-10.7 26.47 -13.98 26.01 -19 23 C-19 22.34 -19 21.68 -19 21 C-19.99 20.67 -20.98 20.34 -22 20 C-24.99 15.51 -24.82 11.26 -24 6 C-22.18 2.22 -19.81 -0.2 -15.96 -1.9 C-9.84 -3.66 -5.81 -1.98 0 0 Z " fill="#030303" transform="translate(351,566)"/>
</svg>
