<?xml version="1.0" encoding="UTF-8"?>
<!-- Generator: visioncortex VTracer 0.6.3 -->
<svg version="1.1" xmlns="http://www.w3.org/2000/svg" width="1280" height="1280">
<path d="M0 0 C3 8.99 -5.85 26.61 -10.04 35.11 C-16.39 47.28 -16.39 47.28 -19.74 50.87 C-27.05 59.22 -25.91 68.53 -25.76 78.99 C-25.76 80.94 -25.76 82.89 -25.77 84.84 C-25.78 89.95 -25.75 95.07 -25.71 100.19 C-25.65 108.36 -25.63 116.54 -25.64 124.71 C-25.64 127.55 -25.61 130.38 -25.57 133.21 C-25.48 151.41 -29.86 165.19 -42.62 178.69 C-55.77 191.44 -74.98 196.49 -91.81 202.7 C-95.93 204.22 -100.04 205.79 -104.12 207.39 C-143.84 222.9 -179.44 222.95 -219.04 207.17 C-224.51 205.01 -230.01 202.92 -235.5 200.81 C-238.62 199.61 -241.73 198.41 -244.84 197.21 C-247.07 196.36 -249.3 195.5 -251.52 194.65 C-252.68 194.21 -253.83 193.77 -255.02 193.32 C-256.06 192.92 -257.1 192.52 -258.18 192.11 C-273.51 186.08 -286.08 175.06 -293 160 C-296.67 148.63 -297.52 137.74 -297.33 125.86 C-297.29 123.12 -297.28 120.39 -297.28 117.65 C-297.27 109.89 -297.21 102.13 -297.11 94.36 C-297.05 89.58 -297.04 84.79 -297.05 80.01 C-297.05 78.2 -297.02 76.4 -296.99 74.6 C-296.75 63.59 -297.59 56.49 -304.7 47.83 C-313.64 36.8 -323 15.24 -323 1 C-318.84 1.59 -316 3.04 -312.38 5.12 C-291.19 16.43 -263.03 20.67 -239.38 17.94 C-237.9 17.78 -237.9 17.78 -236.39 17.61 C-233.26 17.27 -230.13 16.92 -227 16.56 C-205.27 14.11 -183.93 12.79 -162.06 12.81 C-161.03 12.81 -159.99 12.81 -158.92 12.81 C-142.85 12.84 -127 13.33 -111 15 C-109.42 15.16 -107.83 15.33 -106.25 15.49 C-104.5 15.67 -102.76 15.84 -101.02 16.02 C-100.15 16.11 -99.27 16.2 -98.37 16.3 C-94 16.75 -89.64 17.2 -85.28 17.68 C-84.47 17.77 -83.66 17.85 -82.82 17.94 C-81.31 18.1 -79.79 18.27 -78.28 18.44 C-71.57 19.15 -64.79 19.52 -58.12 18.34 C-57.27 18.19 -56.43 18.04 -55.55 17.88 C-54.67 17.72 -53.79 17.55 -52.88 17.38 C-51.93 17.2 -50.99 17.02 -50.01 16.83 C-34.52 13.82 -19.44 10.8 -5.77 2.64 C-3 1 -3 1 0 0 Z M-310 16 C-308.88 22.48 -306.94 27.77 -303.75 33.5 C-303.35 34.24 -302.94 34.98 -302.53 35.75 C-299.62 41.03 -296.58 46.14 -293 51 C-292.49 51.7 -291.99 52.39 -291.46 53.11 C-276.28 73.32 -255.95 90.33 -232 99 C-231.42 99.22 -230.83 99.45 -230.23 99.68 C-225.28 101.58 -220.28 103.23 -215.19 104.75 C-214.44 104.98 -213.69 105.22 -212.92 105.46 C-208.48 106.84 -208.48 106.84 -204 106 C-202.71 103.6 -201.56 101.23 -200.44 98.75 C-194.29 85.86 -184.27 71.83 -172.68 63.29 C-171.85 62.65 -171.85 62.65 -171 62 C-171 61.34 -171 60.68 -171 60 C-170.34 60 -169.68 60 -169 60 C-169 58.13 -169 58.13 -170 56 C-172.19 54.37 -174.26 53.03 -176.62 51.69 C-177.3 51.3 -177.97 50.91 -178.66 50.5 C-197.4 39.81 -215.84 34.57 -237.12 31.44 C-242.76 30.58 -248.35 29.49 -253.95 28.39 C-256.21 27.96 -258.47 27.55 -260.73 27.14 C-277.25 24.11 -293.89 20.82 -310 16 Z M-18.74 17.47 C-35.96 22.89 -53.8 26.02 -71.59 28.91 C-72.6 29.08 -73.62 29.25 -74.67 29.42 C-79.75 30.25 -84.83 31.07 -89.91 31.84 C-111.51 35.27 -136.44 41.61 -153 57 C-153.35 60.14 -153.35 60.14 -150.91 62.09 C-149.97 62.89 -149.03 63.68 -148.06 64.5 C-142.34 69.49 -137.59 74.95 -133 81 C-132.4 81.79 -131.79 82.58 -131.17 83.39 C-127.07 88.98 -123.81 94.88 -120.75 101.09 C-118.86 105.09 -118.86 105.09 -115 107 C-111.36 106.33 -107.85 105.15 -104.31 104.06 C-102.76 103.59 -102.76 103.59 -101.18 103.1 C-92.24 100.26 -84.19 96.52 -76 92 C-74.99 91.49 -73.97 90.97 -72.93 90.44 C-66.26 87.02 -60.72 82.82 -55 78 C-54.02 77.23 -53.04 76.45 -52.02 75.65 C-45 70.04 -39.41 64.16 -34 57 C-33.13 55.92 -32.26 54.85 -31.39 53.78 C-23.79 44.2 -12 28.52 -12 16 C-14.43 16 -16.44 16.74 -18.74 17.47 Z M-191.03 21.8 C-193.79 21.94 -196.55 22.07 -199.3 22.2 C-201.09 22.29 -202.88 22.38 -204.67 22.46 C-205.48 22.5 -206.28 22.54 -207.12 22.58 C-211.09 22.79 -215.06 23.05 -219.02 23.41 C-219.76 23.47 -220.5 23.54 -221.26 23.6 C-221.84 23.74 -222.41 23.87 -223 24 C-223.33 24.66 -223.66 25.32 -224 26 C-222.96 26.22 -221.92 26.44 -220.84 26.66 C-200.91 31.01 -181.98 38.34 -165.55 50.63 C-163.11 52.22 -163.11 52.22 -160.47 51.91 C-157.71 50.89 -155.61 49.61 -153.19 47.94 C-146.65 43.64 -139.79 40.22 -132.74 36.84 C-131.35 36.17 -129.96 35.48 -128.57 34.78 C-119.49 30.41 -108.97 27.43 -99 26 C-99 25.34 -99 24.68 -99 24 C-111.9 22.84 -124.8 21.86 -137.75 21.38 C-138.76 21.34 -139.78 21.3 -140.82 21.25 C-157.58 20.68 -174.29 20.95 -191.03 21.8 Z M-173 73 C-181.31 81.47 -197 97.68 -197 110 C-196 110.48 -194.99 110.97 -193.96 111.47 C-183.88 116.39 -173.86 121.48 -164.95 128.36 C-162.16 130.33 -162.16 130.33 -159.39 129.45 C-157.04 128.03 -154.87 126.54 -152.69 124.88 C-146.47 120.4 -139.72 117.19 -132.83 113.88 C-130.21 112.62 -127.6 111.31 -125 110 C-130.62 92.48 -145.46 75 -160 64 C-164.89 64 -169.57 69.76 -173 73 Z M-288 70 C-288.16 80.02 -288.29 90.05 -288.36 100.07 C-288.4 104.73 -288.45 109.38 -288.53 114.04 C-288.6 118.55 -288.65 123.05 -288.66 127.56 C-288.68 129.27 -288.7 130.97 -288.74 132.68 C-289.05 146.89 -286.39 158.77 -277.19 170.06 C-271.46 175.84 -265.16 180.26 -257.62 183.34 C-256.57 183.76 -255.51 184.19 -254.43 184.63 C-248.26 187.09 -242.07 189.49 -235.88 191.88 C-233.12 192.94 -230.36 194 -227.61 195.06 C-226.94 195.32 -226.27 195.57 -225.58 195.84 C-221.92 197.25 -218.26 198.69 -214.61 200.16 C-207.29 203.11 -199.98 205.73 -192.38 207.88 C-191.65 208.08 -190.93 208.28 -190.18 208.49 C-172.25 213.3 -148.8 213.42 -131 208 C-130.34 207.8 -129.68 207.6 -128.99 207.4 C-116.44 203.58 -104.23 198.74 -92 194 C-89.73 193.12 -87.46 192.25 -85.19 191.38 C-84.19 190.99 -83.2 190.6 -82.18 190.2 C-79.81 189.31 -77.43 188.45 -75.04 187.61 C-59.85 182.25 -46.27 174.52 -38.32 159.83 C-33.4 149.24 -33.59 137.94 -33.71 126.54 C-33.71 124.9 -33.72 123.26 -33.72 121.62 C-33.73 117.35 -33.76 113.08 -33.79 108.8 C-33.82 104.43 -33.84 100.05 -33.85 95.67 C-33.89 87.11 -33.94 78.56 -34 70 C-34.46 70.41 -34.92 70.81 -35.4 71.23 C-36.32 72.03 -36.32 72.03 -37.27 72.85 C-37.87 73.38 -38.48 73.91 -39.1 74.46 C-40.91 75.93 -42.77 77.15 -44.75 78.38 C-48.93 81.9 -49.13 86.64 -49.87 91.75 C-51.34 101.35 -55.73 110.61 -63.3 116.91 C-68.37 120.45 -73.04 123.32 -79 125 C-79.67 125.22 -80.35 125.43 -81.04 125.65 C-91.67 128.61 -103.09 126.5 -113 122 C-114.24 121.06 -115.45 120.08 -116.62 119.06 C-119.64 116.81 -119.64 116.81 -122.08 117.04 C-132.7 119.69 -147.77 127.75 -155 136 C-155 137.32 -155 138.64 -155 140 C-149.36 144.8 -141.89 147.51 -135 150 C-138.21 164.37 -148.5 176.15 -160 185 C-163.43 183.79 -165.5 182.62 -168 180 C-168.66 180 -169.32 180 -170 180 C-170.26 179.42 -170.51 178.83 -170.77 178.23 C-172.12 175.78 -173.65 174.22 -175.62 172.25 C-181.31 166.06 -184.51 158.56 -188 151 C-185.6 148.6 -183.53 147.91 -180.38 146.69 C-175.16 144.58 -170.66 142.14 -166 139 C-167.51 134.63 -170.85 132.66 -174.56 130.25 C-175.22 129.82 -175.87 129.39 -176.55 128.95 C-181.58 125.73 -186.76 122.88 -192.12 120.25 C-193.19 119.71 -193.19 119.71 -194.28 119.16 C-197.28 117.75 -199.31 116.86 -202.62 117.55 C-204.39 118.63 -206.12 119.79 -207.82 120.98 C-211.49 123.31 -214.75 124.28 -218.94 125.25 C-219.61 125.42 -220.29 125.6 -220.99 125.77 C-231.79 128.38 -242.87 126.71 -252.5 121.12 C-261.4 115.27 -268.92 106.33 -272 96 C-272.28 93.63 -272.53 91.25 -272.75 88.88 C-273.35 83.92 -273.93 81.24 -277.75 77.94 C-279.15 76.94 -280.57 75.96 -282 75 C-284.02 73.36 -286.01 71.68 -288 70 Z M-265 90 C-263.67 99.15 -259.68 105.24 -253.25 111.81 C-242.86 118.8 -233.35 121.15 -221 119 C-217.46 117.64 -214.23 115.98 -211 114 C-214.29 112.17 -217.55 111.26 -221.19 110.31 C-235.1 106.4 -247.68 100.5 -260 93 C-260.95 92.43 -261.91 91.86 -262.89 91.27 C-263.59 90.85 -264.28 90.43 -265 90 Z M-58 90 C-59.2 90.76 -59.2 90.76 -60.42 91.54 C-76.27 101.47 -92.65 109.04 -111 113 C-105.68 118.65 -99.47 119.56 -91.98 119.99 C-82.6 120.02 -73.99 116.37 -66.92 110.18 C-62.61 105.55 -58.97 100.04 -57 94 C-57.29 91.77 -57.29 91.77 -58 90 Z M-164.3 146.11 C-165.15 146.65 -166 147.19 -166.88 147.75 C-168.14 148.55 -168.14 148.55 -169.43 149.36 C-170.28 149.9 -171.13 150.44 -172 151 C-173.66 152 -175.33 153.01 -177 154 C-175.97 162.79 -168.72 168.82 -163 175 C-155.66 173.54 -150.2 165.23 -146.12 159.25 C-144.78 156.97 -144.78 156.97 -145 154 C-147.27 152.68 -149.54 151.37 -151.81 150.06 C-152.78 149.5 -152.78 149.5 -153.76 148.93 C-158.82 145.51 -158.82 145.51 -164.3 146.11 Z " fill="#060B0C" transform="translate(507,530)"/>
<path d="M0 0 C1.18 0.01 1.18 0.01 2.38 0.02 C20.73 0.15 40.03 0.44 54.19 13.94 C60.9 21.53 63.42 28.32 63.06 38.38 C59.18 39.29 55.57 39.5 51.59 39.51 C49.75 39.51 49.75 39.51 47.87 39.51 C45.95 39.51 45.95 39.51 44 39.5 C42.72 39.5 41.44 39.51 40.12 39.51 C38.9 39.51 37.67 39.51 36.4 39.51 C34.72 39.51 34.72 39.51 33.01 39.5 C30.49 39.39 28.43 39.22 26.06 38.38 C25.04 36.67 25.04 36.67 24.25 34.56 C22.08 29.8 19.82 28.46 15.06 26.38 C10.1 24.99 4.99 25.15 -0.12 25.12 C-1.02 25.1 -1.92 25.08 -2.84 25.06 C-9.08 25.03 -15.26 25.57 -20.94 28.38 C-22.13 31.96 -22.27 34.62 -21.94 38.38 C-17.11 43.75 -8.85 43.86 -2.11 44.49 C-0.15 44.69 1.8 44.88 3.76 45.08 C6.8 45.39 9.84 45.68 12.88 45.97 C22.97 46.93 32.88 47.95 42.64 50.79 C43.31 50.99 43.98 51.18 44.67 51.38 C52.61 53.9 60.22 58.99 64.38 66.31 C68.97 76.03 68.82 87.85 66.05 98.11 C61.83 107.6 54.42 113.09 45.12 117.25 C31.35 122.5 16.44 122.58 1.88 122.56 C1.19 122.56 0.51 122.56 -0.2 122.56 C-27.17 122.51 -27.17 122.51 -38.94 117.38 C-40.4 116.76 -40.4 116.76 -41.9 116.13 C-52.69 111.21 -58.59 104.38 -62.94 93.38 C-64.31 88.51 -63.94 84.78 -63.94 79.38 C-51.73 79.38 -39.52 79.38 -26.94 79.38 C-22.94 89.38 -22.94 89.38 -21.94 92.38 C-19.69 93.53 -19.69 93.53 -16.94 94.38 C-16.04 94.71 -15.15 95.04 -14.23 95.39 C-3.72 98.55 9.5 98.13 20.06 95.38 C24.28 93.08 24.28 93.08 27.06 89.38 C27.32 85.86 27.5 83.27 25.94 80.06 C20.92 75.55 13.12 75.58 6.71 74.79 C4.45 74.5 2.2 74.2 -0.06 73.91 C-3.59 73.45 -7.12 73 -10.65 72.56 C-14.07 72.13 -17.5 71.68 -20.92 71.23 C-21.96 71.1 -23 70.97 -24.07 70.84 C-36.24 69.22 -48.81 65.36 -56.68 55.37 C-62.06 46.83 -62.22 36.01 -60.35 26.35 C-57.75 17.83 -52.56 12.24 -45.06 7.59 C-31.06 0.46 -15.41 -0.17 0 0 Z " fill="#060B0C" transform="translate(605.9375,578.625)"/>
<path d="M0 0 C2.51 -0.19 4.98 -0.2 7.5 -0.17 C8.42 -0.17 9.34 -0.17 10.29 -0.17 C12.24 -0.17 14.19 -0.16 16.13 -0.13 C19.12 -0.1 22.1 -0.11 25.08 -0.13 C26.97 -0.13 28.86 -0.12 30.75 -0.1 C31.65 -0.11 32.54 -0.11 33.46 -0.12 C39.64 -0 39.64 -0 42.16 2.38 C42.48 3.07 42.8 3.76 43.13 4.46 C43.43 5.07 43.74 5.67 44.05 6.3 C44.46 7.28 44.46 7.28 44.88 8.28 C46.67 12.44 48.57 16.55 50.5 20.65 C53.38 26.76 56.07 32.92 58.67 39.15 C59.73 41.56 60.83 43.9 62.02 46.25 C64.81 51.75 67.27 57.4 69.77 63.04 C71.79 67.56 73.89 72.02 76.13 76.44 C78.02 80.27 79.71 84.18 81.44 88.09 C84.71 95.45 88.18 102.63 92.01 109.71 C93.24 112.73 93.05 113.49 92.13 116.46 C87.36 116.61 82.59 116.72 77.82 116.79 C76.2 116.82 74.58 116.86 72.96 116.92 C70.62 116.99 68.29 117.02 65.96 117.05 C65.23 117.08 64.51 117.11 63.76 117.14 C61.7 117.14 61.7 117.14 58.13 116.46 C54.99 112.75 53.2 108.7 51.38 104.21 C50.95 103.18 50.52 102.14 50.08 101.07 C49.13 98.46 49.13 98.46 49.13 96.46 C29.33 96.79 9.53 97.12 -10.87 97.46 C-13.51 103.4 -16.15 109.34 -18.87 115.46 C-19.87 116.46 -19.87 116.46 -23.2 116.58 C-24.67 116.58 -26.15 116.57 -27.63 116.56 C-28.4 116.56 -29.18 116.56 -29.98 116.56 C-32.46 116.55 -34.95 116.54 -37.44 116.53 C-39.12 116.52 -40.8 116.52 -42.48 116.51 C-46.61 116.5 -50.74 116.48 -54.87 116.46 C-55.2 115.8 -55.53 115.14 -55.87 114.46 C-54.99 112.22 -54.05 110.11 -53 107.96 C-52.68 107.29 -52.37 106.63 -52.04 105.94 C-50.99 103.74 -49.93 101.54 -48.87 99.34 C-48.14 97.8 -47.4 96.26 -46.67 94.71 C-45.15 91.53 -43.63 88.34 -42.11 85.16 C-39.08 78.81 -36.09 72.44 -33.11 66.07 C-32.18 64.08 -31.26 62.11 -30.33 60.13 C-26.16 51.23 -22.01 42.32 -17.87 33.4 C-17.34 32.24 -16.8 31.09 -16.25 29.9 C-14.03 25.12 -11.82 20.35 -9.61 15.57 C-9.29 14.87 -8.97 14.17 -8.63 13.44 C-7.83 11.71 -7.04 9.98 -6.24 8.25 C-5.79 7.33 -5.34 6.41 -4.87 5.46 C-4.54 4.59 -4.21 3.72 -3.87 2.83 C-1.87 0.46 -1.87 0.46 0 0 Z M18.13 30.46 C13.99 39.12 10.04 47.84 6.25 56.65 C5.86 57.56 5.47 58.47 5.06 59.4 C4.69 60.26 4.33 61.12 3.95 62.01 C3.62 62.77 3.29 63.53 2.96 64.32 C1.97 66.73 1.97 66.73 1.13 70.46 C13.01 70.46 24.89 70.46 37.13 70.46 C33.14 60.01 33.14 60.01 28.63 49.9 C25.58 43.51 22.78 37.03 20.13 30.46 C19.47 30.46 18.81 30.46 18.13 30.46 Z " fill="#060B0C" transform="translate(1002.8725891113281,581.5364837646484)"/>
<path d="M0 0 C12.54 0 25.08 0 38 0 C41.42 6.84 44.6 13.57 47.5 20.62 C47.92 21.63 48.33 22.64 48.76 23.68 C51.32 29.87 53.85 36.08 56.36 42.29 C56.65 43 56.94 43.71 57.23 44.43 C58.64 47.91 60.05 51.39 61.45 54.87 C64.45 62.33 67.59 69.71 71 77 C75.53 66.36 79.97 55.7 84.21 44.94 C86.01 40.39 87.91 35.91 89.92 31.44 C92.07 26.58 94.09 21.66 96.12 16.75 C96.57 15.69 97.01 14.63 97.46 13.53 C99.34 9.03 101.19 4.53 103 0 C115.54 0 128.08 0 141 0 C138.76 10.06 138.76 10.06 136.79 13.66 C133.71 19.5 131.02 25.49 128.33 31.52 C126.79 34.95 125.25 38.38 123.7 41.8 C123.39 42.5 123.08 43.19 122.76 43.9 C119.78 50.5 116.74 57.06 113.69 63.62 C109.61 72.4 105.68 81.23 101.94 90.15 C100.41 93.79 98.85 97.38 97.06 100.9 C94.57 105.86 92.3 110.94 90 116 C77.46 116 64.92 116 52 116 C50.29 112.43 48.58 108.86 46.81 105.19 C46.28 104.09 45.75 102.99 45.21 101.85 C39.5 89.92 34.13 77.84 28.73 65.77 C25.78 59.17 22.81 52.58 19.77 46.02 C17.8 41.75 15.88 37.47 14.06 33.12 C11.93 28.1 9.7 23.13 7.38 18.19 C7.08 17.56 6.78 16.93 6.48 16.28 C6.19 15.67 5.91 15.06 5.61 14.44 C4.25 11.53 2.89 8.62 1.56 5.69 C1.25 5.01 0.95 4.33 0.63 3.64 C0 2 0 2 0 0 Z " fill="#060B0C" transform="translate(830,582)"/>
<path d="M0 0 C10.89 0 21.78 0 33 0 C33 29.04 33 58.08 33 88 C58.62 87.96 58.62 87.96 84.25 87.91 C89.2 87.91 89.2 87.91 91.51 87.9 C93.13 87.9 94.75 87.9 96.37 87.89 C98.82 87.89 101.28 87.89 103.73 87.89 C104.45 87.88 105.18 87.88 105.93 87.88 C110.89 87.89 110.89 87.89 112 89 C112.1 90.91 112.13 92.83 112.13 94.75 C112.13 95.92 112.14 97.08 112.14 98.28 C112.13 99.51 112.13 100.74 112.12 102 C112.13 103.23 112.13 104.45 112.14 105.72 C112.14 106.88 112.13 108.05 112.13 109.25 C112.13 110.33 112.13 111.41 112.13 112.52 C112 115 112 115 111 116 C109.57 116.1 108.14 116.13 106.71 116.13 C105.78 116.13 104.86 116.13 103.91 116.14 C102.37 116.13 102.37 116.13 100.8 116.13 C99.73 116.13 98.66 116.13 97.56 116.13 C94 116.14 90.44 116.14 86.88 116.13 C84.41 116.13 81.95 116.13 79.49 116.14 C74.32 116.14 69.15 116.14 63.98 116.13 C57.34 116.12 50.7 116.13 44.06 116.13 C38.97 116.14 33.88 116.14 28.8 116.13 C26.35 116.13 23.9 116.13 21.45 116.14 C18.03 116.14 14.61 116.13 11.2 116.13 C10.17 116.13 9.15 116.13 8.09 116.14 C6.71 116.13 6.71 116.13 5.29 116.13 C4.48 116.13 3.67 116.13 2.84 116.13 C1 116 1 116 0 115 C-0.1 113.51 -0.12 112.01 -0.12 110.51 C-0.12 109.54 -0.12 108.58 -0.12 107.58 C-0.12 106.51 -0.12 105.43 -0.11 104.33 C-0.11 103.21 -0.11 102.09 -0.11 100.93 C-0.11 97.2 -0.11 93.47 -0.1 89.75 C-0.1 87.17 -0.09 84.59 -0.09 82.02 C-0.09 75.91 -0.08 69.81 -0.07 63.71 C-0.06 56.76 -0.06 49.82 -0.05 42.87 C-0.04 28.58 -0.02 14.29 0 0 Z " fill="#060B0C" transform="translate(738,582)"/>
<path d="M0 0 C1.04 0 1.04 0 2.1 0.01 C2.8 0.01 3.51 0 4.24 0 C5.73 0 7.23 0 8.73 0.01 C11.02 0.01 13.32 0.01 15.62 0 C17.07 0 18.52 0 19.97 0.01 C20.66 0 21.35 0 22.07 0 C26.92 0.02 26.92 0.02 28.03 1.14 C28.13 2.62 28.16 4.1 28.16 5.58 C28.16 6.54 28.17 7.5 28.17 8.49 C28.17 9.55 28.16 10.61 28.16 11.7 C28.16 12.81 28.17 13.92 28.17 15.07 C28.17 18.76 28.17 22.45 28.17 26.14 C28.17 28.69 28.17 31.24 28.17 33.8 C28.17 39.15 28.17 44.51 28.16 49.87 C28.16 56.07 28.16 62.27 28.17 68.47 C28.17 74.42 28.17 80.38 28.17 86.33 C28.17 88.87 28.17 91.41 28.17 93.95 C28.17 97.49 28.17 101.03 28.16 104.58 C28.16 105.64 28.17 106.7 28.17 107.79 C28.17 108.75 28.16 109.71 28.16 110.7 C28.16 111.54 28.16 112.37 28.16 113.24 C28.03 115.14 28.03 115.14 27.03 116.14 C24.66 116.23 22.31 116.25 19.94 116.24 C18.87 116.23 18.87 116.23 17.79 116.23 C15.52 116.23 13.24 116.21 10.97 116.2 C9.43 116.2 7.9 116.19 6.36 116.19 C2.58 116.18 -1.19 116.16 -4.97 116.14 C-6.16 113.75 -6.09 112.28 -6.09 109.62 C-6.1 108.66 -6.1 107.71 -6.1 106.73 C-6.1 105.68 -6.1 104.63 -6.1 103.55 C-6.1 102.45 -6.1 101.35 -6.1 100.22 C-6.11 96.57 -6.1 92.91 -6.1 89.26 C-6.1 86.73 -6.1 84.2 -6.1 81.68 C-6.1 76.37 -6.1 71.07 -6.1 65.76 C-6.09 59.62 -6.09 53.49 -6.1 47.35 C-6.1 41.45 -6.1 35.55 -6.1 29.65 C-6.1 27.14 -6.1 24.62 -6.1 22.11 C-6.11 18.61 -6.1 15.1 -6.1 11.59 C-6.1 10.54 -6.1 9.49 -6.1 8.41 C-6.1 7.46 -6.1 6.51 -6.09 5.54 C-6.09 4.71 -6.09 3.88 -6.09 3.02 C-5.83 -0.86 -3.3 0.02 0 0 Z " fill="#060B0C" transform="translate(691.966552734375,581.8610534667969)"/>
</svg>
